<svg xmlns="http://www.w3.org/2000/svg" xmlns:xlink="http://www.w3.org/1999/xlink" viewBox="0 0 31.34 31.34"><defs><style>.cls-1{fill:url(#Degradado_sin_nombre_9);}.cls-2{fill:#211d57;}</style><linearGradient id="Degradado_sin_nombre_9" x1="7.97" y1="31.37" x2="19.66" y2="7.55" gradientUnits="userSpaceOnUse"><stop offset="0" stop-color="#f1a01f"/><stop offset="1" stop-color="#f1b71c"/></linearGradient></defs><title>Recurso 120</title><g id="Capa_2" data-name="Capa 2"><g id="Capa_1-2" data-name="Capa 1"><circle class="cls-1" cx="15.67" cy="15.67" r="15.67"/><path class="cls-2" d="M25.23,15.27H24.17V11a.47.47,0,0,0-.47-.46h-1a4.06,4.06,0,0,0,.13-1,3.71,3.71,0,1,0-7.42,0,3.62,3.62,0,0,0,.13,1h-.36a3.71,3.71,0,0,0-7.36,0H7.16A1.52,1.52,0,0,0,5.65,12V24a1.52,1.52,0,0,0,1.51,1.52H23.7a.47.47,0,0,0,.47-.47V20.68h1.06a.46.46,0,0,0,.46-.46V15.74A.47.47,0,0,0,25.23,15.27ZM16.32,9.52a2.78,2.78,0,1,1,5.37,1H16.5A2.7,2.7,0,0,1,16.32,9.52ZM11.48,8.19a2.77,2.77,0,0,1,2.73,2.31H8.74A2.78,2.78,0,0,1,11.48,8.19ZM23.24,24.6H7.16A.58.58,0,0,1,6.58,24V12a.58.58,0,0,1,.58-.58H23.24v3.84H20.58a2.27,2.27,0,0,0-2.27,2.26v.89a2.27,2.27,0,0,0,2.27,2.26h2.66V24.6Zm1.52-4.85H20.58a1.32,1.32,0,0,1-1.33-1.33v-.89a1.32,1.32,0,0,1,1.33-1.32h4.18Z"/><path class="cls-2" d="M21.12,16.8A1.22,1.22,0,1,0,22.34,18,1.22,1.22,0,0,0,21.12,16.8Zm0,1.77a.56.56,0,0,1,0-1.11.56.56,0,0,1,0,1.11Z"/><path class="cls-2" d="M13.48,18a1.36,1.36,0,0,0,.8-1.26h0a1.27,1.27,0,0,0-.38-.94,1.72,1.72,0,0,0-.83-.42v-.85a.39.39,0,1,0-.77,0v.77h-.71v-.77a.39.39,0,1,0-.77,0v.77h-.43a.5.5,0,0,0-.5.5v4.65a.5.5,0,0,0,.5.5h.43v.72a.39.39,0,1,0,.77,0v-.72h.71v.72a.39.39,0,1,0,.77,0v-.76c.94-.15,1.53-.66,1.53-1.51v0A1.39,1.39,0,0,0,13.48,18Zm-.19-1.11v0c0,.51-.43.76-1.07.76H10.87v-1.5H12.3C12.93,16.16,13.29,16.44,13.29,16.88Zm.31,2.4c0,.5-.41.77-1.09.77H10.87V18.5h1.57c.79,0,1.16.28,1.16.76Z"/></g></g></svg>