<svg xmlns="http://www.w3.org/2000/svg" xmlns:xlink="http://www.w3.org/1999/xlink" viewBox="0 0 31.34 31.34"><defs><style>.cls-1{fill:url(#Degradado_sin_nombre_9);}.cls-2{fill:#211d57;}</style><linearGradient id="Degradado_sin_nombre_9" x1="7.97" y1="31.37" x2="19.66" y2="7.55" gradientUnits="userSpaceOnUse"><stop offset="0" stop-color="#f1a01f"/><stop offset="1" stop-color="#f1b71c"/></linearGradient></defs><title>Recurso 124</title><g id="Capa_2" data-name="Capa 2"><g id="Capa_1-2" data-name="Capa 1"><circle class="cls-1" cx="15.67" cy="15.67" r="15.67"/><path class="cls-2" d="M22,6.39H9.38A2.82,2.82,0,0,0,6.56,9.21V24.52h0s0,.05,0,.07v0s0,0,0,0,0,0,0,0h0a.43.43,0,0,0,0,.07h0l0,.06,0,0,0,0,0,0,.06,0H7.1l.05,0h0l0,0h0L8.57,24l1.32.92a.45.45,0,0,0,.5,0L11.71,24l1.33.92a.44.44,0,0,0,.49,0L14.86,24l1.32.92a.44.44,0,0,0,.49,0L18,24l1.32.92a.44.44,0,0,0,.68-.36V22a2.75,2.75,0,0,1-.41,0,3.31,3.31,0,0,1-.45,0v1.68l-.89-.62a.45.45,0,0,0-.5,0L16.43,24l-1.33-.92a.44.44,0,0,0-.49,0L13.28,24,12,23.07a.45.45,0,0,0-.5,0L10.14,24l-1.33-.92a.44.44,0,0,0-.49,0l-.89.62V9.21a2,2,0,0,1,2-2H19.93a2.82,2.82,0,0,0-.79,2v4.72a3.93,3.93,0,1,0,.86,0V9.21a2,2,0,1,1,3.91,0v2.07h-3.6v.87h4a.43.43,0,0,0,.43-.43V9.21A2.82,2.82,0,0,0,22,6.39Zm.67,11.42a3,3,0,1,1-3-3A3.05,3.05,0,0,1,22.63,17.81Z"/><path class="cls-2" d="M18.13,10.28V9.13a.31.31,0,0,0-.31-.31H9a.3.3,0,0,0-.3.31v1.15a.3.3,0,0,0,.3.31h8.84A.31.31,0,0,0,18.13,10.28ZM17.51,10H9.29V9.44h8.22Z"/><path class="cls-2" d="M10.22,15.91H9a.31.31,0,0,0,0,.61h1.24a.31.31,0,1,0,0-.61Z"/><path class="cls-2" d="M14.79,15.91h-3a.31.31,0,1,0,0,.61h3a.31.31,0,1,0,0-.61Z"/><path class="cls-2" d="M10.22,17.6H9a.31.31,0,0,0,0,.62h1.24a.31.31,0,1,0,0-.62Z"/><path class="cls-2" d="M14.79,17.6h-3a.31.31,0,1,0,0,.62h3a.31.31,0,0,0,0-.62Z"/><path class="cls-2" d="M10.22,19.29H9a.31.31,0,0,0,0,.62h1.24a.31.31,0,0,0,0-.62Z"/><path class="cls-2" d="M14.79,19.29h-3a.31.31,0,1,0,0,.62h3a.31.31,0,1,0,0-.62Z"/><path class="cls-2" d="M10.22,21H9a.31.31,0,0,0,0,.62h1.24a.31.31,0,0,0,0-.62Z"/><path class="cls-2" d="M14.79,21h-3a.31.31,0,0,0,0,.62h3a.31.31,0,0,0,0-.62Z"/><path class="cls-2" d="M19.28,15.52v.42A1,1,0,0,0,19,17.73l.75.46a.34.34,0,0,1,.17.31v.06a.37.37,0,0,1-.36.37h-.05a.37.37,0,0,1-.36-.37v0a.31.31,0,1,0-.62,0v0a1,1,0,0,0,.72,1V20a.31.31,0,0,0,.62,0v-.54a1,1,0,0,0,.67-.93V18.5a1,1,0,0,0-.47-.84l-.75-.46a.36.36,0,0,1-.17-.31.37.37,0,0,1,.36-.37h.05a.37.37,0,0,1,.36.37v.16a.31.31,0,0,0,.31.31.31.31,0,0,0,.31-.31v-.16A1,1,0,0,0,19.9,16v-.43a.31.31,0,0,0-.62,0Z"/><path class="cls-2" d="M14.79,13.09H9a.31.31,0,0,0,0,.62h5.81a.31.31,0,1,0,0-.62Z"/></g></g></svg>