<svg xmlns="http://www.w3.org/2000/svg" xmlns:xlink="http://www.w3.org/1999/xlink" viewBox="0 0 31.34 31.34"><defs><style>.cls-1{fill:url(#Degradado_sin_nombre_9);}.cls-2{fill:#211d57;}</style><linearGradient id="Degradado_sin_nombre_9" x1="7.97" y1="31.37" x2="19.66" y2="7.55" gradientUnits="userSpaceOnUse"><stop offset="0" stop-color="#f1a01f"/><stop offset="1" stop-color="#f1b71c"/></linearGradient></defs><title>Recurso 83</title><g id="Capa_2" data-name="Capa 2"><g id="Capa_1-2" data-name="Capa 1"><circle class="cls-1" cx="15.67" cy="15.67" r="15.67"/><path class="cls-2" d="M19.29,23.31a3.21,3.21,0,1,0-3.21-3.21A3.21,3.21,0,0,0,19.29,23.31Zm0-5.75a2.54,2.54,0,1,1-2.54,2.54A2.55,2.55,0,0,1,19.29,17.56Z"/><path class="cls-2" d="M19,21.56v.37a.34.34,0,1,0,.67,0v-.38a.91.91,0,0,0,.56-.83v0a.9.9,0,0,0-.43-.76l-.62-.38a.23.23,0,0,1,.12-.42h0a.22.22,0,0,1,.22.23v.13a.34.34,0,0,0,.67,0v-.13a.88.88,0,0,0-.57-.83V18.2a.34.34,0,0,0-.67,0v.3a.89.89,0,0,0-.59.84.93.93,0,0,0,.43.76l.62.38a.21.21,0,0,1,.11.19v0a.22.22,0,0,1-.22.22h0a.22.22,0,0,1-.23-.22v0a.34.34,0,0,0-.67,0v0A.9.9,0,0,0,19,21.56Z"/><path class="cls-2" d="M6.78,14.22h6.08a.33.33,0,0,0,.34-.33v-1.3a.34.34,0,0,0-.34-.33H6.78a.34.34,0,0,0-.34.33v1.3A.33.33,0,0,0,6.78,14.22Zm.33-1.29h5.42v.63H7.11Z"/><path class="cls-2" d="M6.78,16.88H8.07a.34.34,0,0,0,.34-.34v-1.3a.34.34,0,0,0-.34-.33H6.78a.34.34,0,0,0-.34.33v1.3A.34.34,0,0,0,6.78,16.88Zm.33-1.3h.63v.63H7.11Z"/><path class="cls-2" d="M10.47,14.91H9.17a.33.33,0,0,0-.33.33v1.3a.34.34,0,0,0,.33.34h1.3a.34.34,0,0,0,.33-.34v-1.3A.33.33,0,0,0,10.47,14.91Zm-.34,1.3H9.5v-.63h.63Z"/><path class="cls-2" d="M12.86,14.91h-1.3a.33.33,0,0,0-.33.33v1.3a.34.34,0,0,0,.33.34h1.3a.34.34,0,0,0,.34-.34v-1.3A.34.34,0,0,0,12.86,14.91Zm-.33,1.3H11.9v-.63h.63Z"/><path class="cls-2" d="M6.78,19.3H8.07A.34.34,0,0,0,8.41,19v-1.3a.34.34,0,0,0-.34-.33H6.78a.34.34,0,0,0-.34.33V19A.34.34,0,0,0,6.78,19.3ZM7.11,18h.63v.63H7.11Z"/><path class="cls-2" d="M10.47,17.34H9.17a.33.33,0,0,0-.33.33V19a.33.33,0,0,0,.33.33h1.3A.33.33,0,0,0,10.8,19v-1.3A.33.33,0,0,0,10.47,17.34Zm-.34,1.3H9.5V18h.63Z"/><path class="cls-2" d="M12.86,17.34h-1.3a.33.33,0,0,0-.33.33V19a.33.33,0,0,0,.33.33h1.3A.34.34,0,0,0,13.2,19v-1.3A.34.34,0,0,0,12.86,17.34Zm-.33,1.3H11.9V18h.63Z"/><path class="cls-2" d="M6.78,21.73H8.07a.34.34,0,0,0,.34-.33V20.1a.34.34,0,0,0-.34-.33H6.78a.34.34,0,0,0-.34.33v1.3A.34.34,0,0,0,6.78,21.73Zm.33-1.3h.63v.64H7.11Z"/><path class="cls-2" d="M10.47,19.77H9.17a.33.33,0,0,0-.33.33v1.3a.33.33,0,0,0,.33.33h1.3a.33.33,0,0,0,.33-.33V20.1A.33.33,0,0,0,10.47,19.77Zm-.34,1.3H9.5v-.64h.63Z"/><path class="cls-2" d="M12.86,19.77h-1.3a.33.33,0,0,0-.33.33v1.3a.33.33,0,0,0,.33.33h1.3a.34.34,0,0,0,.34-.33V20.1A.34.34,0,0,0,12.86,19.77Zm-.33,1.3H11.9v-.64h.63Z"/><path class="cls-2" d="M16.42,15h5.75a.33.33,0,0,0,.33-.33.32.32,0,0,0-.33-.33H16.42a.33.33,0,0,0-.34.33A.34.34,0,0,0,16.42,15Z"/><path class="cls-2" d="M16.42,12.9h5.75a.34.34,0,0,0,0-.67H16.42a.34.34,0,1,0,0,.67Z"/><path class="cls-2" d="M24.71,9.73a.25.25,0,0,0,0-.08h0s0-.05,0-.07v0l0-.05v0l-.06-.07L20.7,5.54l-.06-.06h0l-.06,0h0l-.07,0H9.5A.47.47,0,0,0,9,5.87v4.72H5.4a.47.47,0,0,0-.47.47V23a.47.47,0,0,0,.47.47h8.82a.47.47,0,0,0,.46-.47V11.06a.47.47,0,0,0-.46-.47H10V6.33H19.9V9.74a.47.47,0,0,0,.47.47h3.41V24.44H10v-.66H9v1.13a.47.47,0,0,0,.47.46H24.24a.47.47,0,0,0,.47-.46V9.74Zm-11,1.8v11H5.86v-11Zm7.09-2.25V7l2.28,2.29Z"/></g></g></svg>