<svg xmlns="http://www.w3.org/2000/svg" xmlns:xlink="http://www.w3.org/1999/xlink" viewBox="0 0 31.34 31.34"><defs><style>.cls-1{fill:url(#Degradado_sin_nombre_9);}.cls-2{fill:#211d57;}</style><linearGradient id="Degradado_sin_nombre_9" x1="7.97" y1="31.37" x2="19.66" y2="7.55" gradientUnits="userSpaceOnUse"><stop offset="0" stop-color="#f1a01f"/><stop offset="1" stop-color="#f1b71c"/></linearGradient></defs><title>Recurso 95</title><g id="Capa_2" data-name="Capa 2"><g id="Capa_1-2" data-name="Capa 1"><circle class="cls-1" cx="15.67" cy="15.67" r="15.67"/><path class="cls-2" d="M16.83,16.43H16.3a1.3,1.3,0,0,1,.53-.69V15a2,2,0,0,0-1.21,1.44h-.45a.33.33,0,0,0-.33.33.33.33,0,0,0,.33.33h1.66v-.66Z"/><path class="cls-2" d="M15.17,11.77h.45a2,2,0,0,0,1.21,1.43v-.74a1.34,1.34,0,0,1-.53-.69h.53v-.66H15.17a.33.33,0,0,0,0,.66Z"/><path class="cls-2" d="M12.39,12.28v-.41a.34.34,0,0,0-.67,0v.4a1,1,0,0,0-.22,1.8l.74.46a.32.32,0,0,1,.16.28v.06a.33.33,0,0,1-.33.33H12a.33.33,0,0,1-.33-.33v0a.34.34,0,0,0-.67,0v0a1,1,0,0,0,.72,1v.49a.33.33,0,1,0,.66,0v-.5a1,1,0,0,0,.67-.94v-.06a1,1,0,0,0-.48-.85l-.74-.46a.33.33,0,0,1,.17-.61h.05a.33.33,0,0,1,.33.33v.16a.34.34,0,1,0,.67,0v-.16A1,1,0,0,0,12.39,12.28Z"/><path class="cls-2" d="M17.63,20.41a.47.47,0,0,0,.47-.47V8.24a.47.47,0,0,0-.93,0v11.7A.47.47,0,0,0,17.63,20.41Z"/><path class="cls-2" d="M22.21,5.81H13.14a2.26,2.26,0,0,0-2.25,2.26V9.6H5.73A1.14,1.14,0,0,0,4.6,10.73v6.73a1.13,1.13,0,0,0,1.13,1.12h5.16v4.69a2.26,2.26,0,0,0,2.25,2.26h9.07a2.26,2.26,0,0,0,2.26-2.26V8.07A2.26,2.26,0,0,0,22.21,5.81Zm1.33,17.46a1.34,1.34,0,0,1-1.33,1.33H13.14a1.33,1.33,0,0,1-1.32-1.33V18.58h5v-.93H5.73a.19.19,0,0,1-.19-.19V10.73a.18.18,0,0,1,.19-.19h11.1V9.6h-5V8.07a1.33,1.33,0,0,1,1.32-1.33h9.07a1.34,1.34,0,0,1,1.33,1.33Z"/><path class="cls-2" d="M8.48,11.77h.44a.33.33,0,0,0,0-.66H6.46a.34.34,0,0,0-.34.33v5.32a.34.34,0,0,0,.34.33H8.92a.33.33,0,0,0,.33-.33.32.32,0,0,0-.33-.33H8.48a2,2,0,0,0-1.69-1.56V13.33A2,2,0,0,0,8.48,11.77Zm-1.69,0h1a1.31,1.31,0,0,1-1,.88Zm1,4.66h-1v-.89A1.34,1.34,0,0,1,7.79,16.43Z"/><path class="cls-2" d="M17.68,21.37a1,1,0,1,0,1,1A1,1,0,0,0,17.68,21.37Zm0,1.39a.36.36,0,0,1-.36-.36.36.36,0,0,1,.72,0A.36.36,0,0,1,17.68,22.76Z"/></g></g></svg>