<svg xmlns="http://www.w3.org/2000/svg" xmlns:xlink="http://www.w3.org/1999/xlink" viewBox="0 0 31.34 31.34"><defs><style>.cls-1{fill:url(#Degradado_sin_nombre_14);}.cls-2{fill:#211d57;}</style><linearGradient id="Degradado_sin_nombre_14" x1="7.97" y1="31.37" x2="19.66" y2="7.55" gradientUnits="userSpaceOnUse"><stop offset="0" stop-color="#d7d7e1"/><stop offset="0.99" stop-color="#fff"/></linearGradient></defs><title>Recurso 115</title><g id="Capa_2" data-name="Capa 2"><g id="Capa_1-2" data-name="Capa 1"><circle class="cls-1" cx="15.67" cy="15.67" r="15.67"/><path class="cls-2" d="M19.92,23.67H11.39a.34.34,0,0,1,0-.67h8.53a.34.34,0,0,1,0,.67Z"/><path class="cls-2" d="M17.64,22.42a.76.76,0,0,1-.73-.87,1.33,1.33,0,0,0-.65.39c-.53.53-.93.47-1.12.39s-.48-.35-.46-1-.14-.72-.14-.72a.45.45,0,0,0-.19.08A2.36,2.36,0,0,0,13.47,22a.34.34,0,0,1-.38.29.34.34,0,0,1-.28-.38c.11-.8,1-2.08,1.77-2,.35,0,.77.29.77,1.39,0,.29,0,.39.06.41a.7.7,0,0,0,.38-.24c.43-.44,1.09-.75,1.51-.52a.58.58,0,0,1,.27.68.11.11,0,0,0,0,.1.06.06,0,0,0,.06,0,.52.52,0,0,0,.24-.14.33.33,0,1,1,.54.37,1.06,1.06,0,0,1-.61.41A.58.58,0,0,1,17.64,22.42Z"/><path class="cls-2" d="M10.92,10.82v8a.47.47,0,0,0,.47.47h8.53a.47.47,0,0,0,.46-.47v-8a.47.47,0,0,0-.46-.47H11.39A.47.47,0,0,0,10.92,10.82Zm.94.47h7.59v7H11.86Z"/><path class="cls-2" d="M20.86,7.61H17.59v.93h3.27c.21,0,.5.44.5.77V24.19a.51.51,0,0,1-.5.51H10.48a.51.51,0,0,1-.5-.51V9a.51.51,0,0,1,.5-.5h3.6V8.9a1,1,0,0,0,1,1h1.24a1,1,0,0,0,1-1V6.68a1,1,0,0,0-1-1H15.05a1,1,0,0,0-1,1v.93h-3.6A1.43,1.43,0,0,0,9.05,9V24.19a1.43,1.43,0,0,0,1.43,1.44H20.86a1.43,1.43,0,0,0,1.43-1.44V9.31A1.67,1.67,0,0,0,20.86,7.61ZM15,6.68s0,0,0,0h1.24s0,0,0,0V8.9s0,0,0,0H15.05s0,0,0,0Z"/><path class="cls-2" d="M18,14.56a1.79,1.79,0,0,0,.07-.51h0a2.19,2.19,0,0,0-.76-1.62.32.32,0,0,0-.13-.24,2.26,2.26,0,0,0-1.37-.46h-.21a2,2,0,0,0-1.11.4.33.33,0,0,0-.27.06,2.49,2.49,0,0,0-.88,1.87,1.79,1.79,0,0,0,.07.51.34.34,0,0,0-.09.08.65.65,0,0,0-.15.52l.11.63a.58.58,0,0,0,.45.47l.07.25a1.66,1.66,0,0,0,.83,1l.28.15a1.7,1.7,0,0,0,.79.19,1.67,1.67,0,0,0,.79-.19l.28-.15a1.68,1.68,0,0,0,.84-1c0-.1.05-.18.06-.25a.57.57,0,0,0,.46-.47l.1-.64a.63.63,0,0,0-.14-.51Zm-3.58-1.65a.31.31,0,0,0,.2-.07,1.9,1.9,0,0,1,1-.45h.21a1.66,1.66,0,0,1,.84.23.32.32,0,0,0,.13.22,1.56,1.56,0,0,1,.62,1.2l-.07-.12a.34.34,0,0,0-.38-.14,1.36,1.36,0,0,1-1.16-.18l-.39-.26a.32.32,0,0,0-.41,0l-.11.1a.53.53,0,0,1-.48.12.32.32,0,0,0-.36.14A1.92,1.92,0,0,1,14.37,12.91Zm3,2.7a.34.34,0,0,0-.33.27s0,.09-.12.46a1,1,0,0,1-.5.62l-.28.15a1.08,1.08,0,0,1-1,0L14.89,17a1,1,0,0,1-.5-.62l-.12-.46a.33.33,0,0,0-.33-.27h-.07l-.07-.47h0a.34.34,0,0,0,.3-.19l.31-.68A1.15,1.15,0,0,0,15.2,14l.17.11a2,2,0,0,0,1.47.33l.34.52a.33.33,0,0,0,.33.14l-.08.47Z"/></g></g></svg>