<svg xmlns="http://www.w3.org/2000/svg" xmlns:xlink="http://www.w3.org/1999/xlink" viewBox="0 0 31.34 31.34"><defs><style>.cls-1{fill:url(#Degradado_sin_nombre_14);}.cls-2{fill:#211d57;}</style><linearGradient id="Degradado_sin_nombre_14" x1="7.97" y1="31.37" x2="19.66" y2="7.55" gradientUnits="userSpaceOnUse"><stop offset="0" stop-color="#d7d7e1"/><stop offset="0.99" stop-color="#fff"/></linearGradient></defs><title>Recurso 92</title><g id="Capa_2" data-name="Capa 2"><g id="Capa_1-2" data-name="Capa 1"><circle class="cls-1" cx="15.67" cy="15.67" r="15.67"/><path class="cls-2" d="M15.08,23.09A.87.87,0,1,0,16,24,.87.87,0,0,0,15.08,23.09Z"/><path class="cls-2" d="M20.56,24.4a1.18,1.18,0,0,1-1.18,1.18H10.79A1.18,1.18,0,0,1,9.61,24.4V10A1.18,1.18,0,0,1,10.79,8.8h8.59A1.18,1.18,0,0,1,20.56,10v1h1V10a2.23,2.23,0,0,0-2.22-2.22H10.79A2.23,2.23,0,0,0,8.57,10V24.4a2.22,2.22,0,0,0,2.22,2.21h8.59A2.22,2.22,0,0,0,21.6,24.4V20.94h-1Z"/><path class="cls-2" d="M7.43,9.72a.37.37,0,0,1-.37-.37,3,3,0,0,1,3-3,.37.37,0,1,1,0,.73,2.31,2.31,0,0,0-2.3,2.3A.36.36,0,0,1,7.43,9.72Z"/><path class="cls-2" d="M5.85,9.72a.36.36,0,0,1-.37-.37A4.62,4.62,0,0,1,10.1,4.73a.36.36,0,0,1,.37.37.37.37,0,0,1-.37.37A3.88,3.88,0,0,0,6.22,9.35.37.37,0,0,1,5.85,9.72Z"/><path class="cls-2" d="M26.47,11.38h-11a1.1,1.1,0,0,0-1.1,1.1v7a1.11,1.11,0,0,0,1.1,1.1h11a1.11,1.11,0,0,0,1.1-1.1v-7A1.1,1.1,0,0,0,26.47,11.38ZM15.36,13.9H26.53v1H15.36Zm.06-1.48h11a.06.06,0,0,1,.06.06v.68H15.36v-.68A.06.06,0,0,1,15.42,12.42Zm11,7.11h-11a.06.06,0,0,1-.06-.06v-3.8H26.53v3.8A.06.06,0,0,1,26.47,19.53Z"/><path class="cls-2" d="M25.51,16.9H23.45a.37.37,0,0,0-.37.37v1.48a.38.38,0,0,0,.37.37h2.06a.38.38,0,0,0,.37-.37V17.27A.37.37,0,0,0,25.51,16.9Zm-.37,1.48H23.82v-.74h1.32Z"/></g></g></svg>