<svg xmlns="http://www.w3.org/2000/svg" xmlns:xlink="http://www.w3.org/1999/xlink" viewBox="0 0 31.34 31.34"><defs><style>.cls-1{fill:url(#Degradado_sin_nombre_14);}.cls-2{fill:#211d57;}</style><linearGradient id="Degradado_sin_nombre_14" x1="7.97" y1="31.37" x2="19.66" y2="7.55" gradientUnits="userSpaceOnUse"><stop offset="0" stop-color="#d7d7e1"/><stop offset="0.99" stop-color="#fff"/></linearGradient></defs><title>Recurso 100</title><g id="Capa_2" data-name="Capa 2"><g id="Capa_1-2" data-name="Capa 1"><circle class="cls-1" cx="15.67" cy="15.67" r="15.67"/><path class="cls-2" d="M14.27,17.82a5.94,5.94,0,0,0,1.83-.31.86.86,0,0,0,.64.29h4a.89.89,0,0,0,.88-.89v-.4a.89.89,0,0,0,.62-.85v-.42a.87.87,0,0,0-.39-.73.34.34,0,0,0,0-.1V14a.38.38,0,0,0,0-.1.86.86,0,0,0,.39-.73v-.42a.88.88,0,0,0-.88-.88h0v-.37a.88.88,0,0,0-.89-.88h-3.4L17,10.53a4.67,4.67,0,0,1-1-1.42.47.47,0,0,0,.45-.47A.46.46,0,0,0,16,8.18h-.09l1-1.81a.47.47,0,0,0-.08-.54.46.46,0,0,0-.53-.11l-.79.36a.57.57,0,0,1-.55,0l-.38-.26h0l0,0,0,0,0,0h-.26l-.05,0,0,0-.05,0h0L13.62,6a.57.57,0,0,1-.55,0l-.79-.36a.46.46,0,0,0-.53.11.47.47,0,0,0-.08.54l1,1.81h-.09a.46.46,0,0,0-.46.46.47.47,0,0,0,.45.47,4.67,4.67,0,0,1-1,1.42,5.2,5.2,0,0,0-1.63,3.52C9.93,16.83,12.27,17.82,14.27,17.82Zm7-5v.32H17.41v-.32h3.88Zm0,2.5v.32H17.41v-.32h3.88Zm-.38-.93H17V14h3.88Zm-.24,2.5H16.79v-.31h3.88v.31Zm-.27-5H16.53v-.32H20.4ZM14.15,6.8l.12-.08.12.08a1.48,1.48,0,0,0,1.06.25l-.6,1.13H13.69l-.6-1.13A1.48,1.48,0,0,0,14.15,6.8Zm-1.88,4.34a4.73,4.73,0,0,0,1.22-2h1.56A4,4,0,0,0,16,10.78a.88.88,0,0,0-.36.71v.42a.87.87,0,0,0,.88.88h0v.37a.34.34,0,0,0,0,.1.87.87,0,0,0-.39.73v.42a.85.85,0,0,0,.39.73.38.38,0,0,0,0,.1v.41a.89.89,0,0,0-.62.85v.11a5,5,0,0,1-1.59.27c-.57,0-3.41-.13-3.41-2.83A4.35,4.35,0,0,1,12.27,11.14Z"/><path class="cls-2" d="M14,14.92v.44a.34.34,0,0,0,.67,0V14.9a1,1,0,0,0,.62-.9V14a1,1,0,0,0-.46-.82l-.7-.43a.31.31,0,0,1-.14-.25.3.3,0,0,1,.3-.29h0a.3.3,0,0,1,.3.29v.16a.33.33,0,0,0,.33.33.33.33,0,0,0,.33-.33v-.16a1,1,0,0,0-.64-.9v-.36a.33.33,0,1,0-.66,0v.36a1,1,0,0,0-.2,1.72l.7.43a.31.31,0,0,1,.14.25V14a.3.3,0,0,1-.3.29h0A.3.3,0,0,1,14,14h0a.33.33,0,0,0-.33-.34.34.34,0,0,0-.33.34h0A1,1,0,0,0,14,14.92Z"/><path class="cls-2" d="M25.54,20.34a1.83,1.83,0,0,0-2.44-.71L19.87,21a1.36,1.36,0,0,0-.92-.81l-2.05-.5a5.58,5.58,0,0,1-2.07-1,3.2,3.2,0,0,0-4.15.21.74.74,0,0,1-.5.2H9.67v-.62a.47.47,0,0,0-.46-.46h-3a.47.47,0,0,0-.46.46v6.65a.47.47,0,0,0,.46.47h3a.47.47,0,0,0,.46-.47v-1H11.2a4,4,0,0,1,1,.12l4.52,1.2h.05a3.87,3.87,0,0,0,.48,0,3,3,0,0,0,.94-.14.22.22,0,0,0,.11,0L25.38,21A.47.47,0,0,0,25.54,20.34ZM8.74,24.73H6.67V19H8.74Zm9.11-.2a2.44,2.44,0,0,1-.93.06l-4.5-1.19a5,5,0,0,0-1.22-.16H9.67V20.08h.51a1.71,1.71,0,0,0,1.14-.45,2.28,2.28,0,0,1,2.95-.15,6.7,6.7,0,0,0,2.41,1.15l2,.5a.47.47,0,0,1,.31.54.38.38,0,0,1-.12.23l-3.73-.55a.46.46,0,0,0-.53.39.45.45,0,0,0,.39.53l3.77.56h.12a1.11,1.11,0,0,0,1-.8l3.59-1.57,0,0a.87.87,0,0,1,.88,0Z"/></g></g></svg>