<svg xmlns="http://www.w3.org/2000/svg" xmlns:xlink="http://www.w3.org/1999/xlink" viewBox="0 0 31.34 31.34"><defs><style>.cls-1{fill:url(#Degradado_sin_nombre_14);}.cls-2{fill:#211d57;}</style><linearGradient id="Degradado_sin_nombre_14" x1="7.97" y1="31.37" x2="19.66" y2="7.55" gradientUnits="userSpaceOnUse"><stop offset="0" stop-color="#d7d7e1"/><stop offset="0.99" stop-color="#fff"/></linearGradient></defs><title>Recurso 108</title><g id="Capa_2" data-name="Capa 2"><g id="Capa_1-2" data-name="Capa 1"><circle class="cls-1" cx="15.67" cy="15.67" r="15.67"/><path class="cls-2" d="M25.49,15.43a.46.46,0,0,0-.66,0L23,17.16l-4.46-4.75,5-4.68a.47.47,0,0,0,0-.66.48.48,0,0,0-.66,0l-5.31,5a.46.46,0,0,0,0,.66l.27.29-.12.11-2.31-.22a2.41,2.41,0,0,0-1.24.22l-1.68.79-1.09-.16.07-.18a.45.45,0,0,0,0-.36.49.49,0,0,0-.26-.25L6.89,11.3a.45.45,0,0,0-.6.26.46.46,0,0,0,.26.6l3.82,1.49-.11.3h0L8,19.72l-1.65-.64A.47.47,0,0,0,6,20l2.09.81a.47.47,0,0,0,.17,0,.43.43,0,0,0,.19,0,.45.45,0,0,0,.24-.25l.42-1.09.61.35v0a1.3,1.3,0,0,0,.41,1.79h0a1.32,1.32,0,0,0,.69.2l.17,0a1.32,1.32,0,0,0,.55.7,1.22,1.22,0,0,0,.68.2h.18a1.24,1.24,0,0,0,.54.69h0a1.28,1.28,0,0,0,.69.2h.18a1.28,1.28,0,0,0,.54.7,1.31,1.31,0,0,0,.69.19,1.43,1.43,0,0,0,.29,0,1.29,1.29,0,0,0,.81-.57l.18-.29.21.12a1.29,1.29,0,0,0,.65.17,1.32,1.32,0,0,0,1.12-.62,1.34,1.34,0,0,0,.18-.53h0a1.15,1.15,0,0,0,.31,0,1.27,1.27,0,0,0,.8-.58,1.43,1.43,0,0,0,.18-.5h.07A1.29,1.29,0,0,0,21,20.93a1.24,1.24,0,0,0,.18-.53h0A1.3,1.3,0,0,0,21.94,18l.29-.31.38.41a.44.44,0,0,0,.33.14h0a.47.47,0,0,0,.32-.12l2.2-2.07A.46.46,0,0,0,25.49,15.43ZM10.64,20.78a.36.36,0,0,1-.12-.5L12,17.92a.36.36,0,1,1,.61.39l-1.47,2.35A.37.37,0,0,1,10.64,20.78Zm1.4.88a.35.35,0,0,1-.16-.23.37.37,0,0,1,0-.27l1.2-1.91a.36.36,0,0,1,.22-.16h.08a.46.46,0,0,1,.2.05.35.35,0,0,1,.16.23.37.37,0,0,1,0,.27l-1.2,1.92a.36.36,0,0,1-.22.16A.39.39,0,0,1,12,21.66Zm1.41.88a.36.36,0,0,1-.16-.22.34.34,0,0,1,.05-.28l.9-1.45a.37.37,0,0,1,.62.39L14,22.43A.36.36,0,0,1,13.45,22.54Zm1.41.88a.37.37,0,0,1-.12-.5l.61-1a.37.37,0,0,1,.31-.17.33.33,0,0,1,.19.06.35.35,0,0,1,.16.23.32.32,0,0,1,0,.27l-.61,1A.36.36,0,0,1,14.86,23.42Zm2.65-.72a.38.38,0,0,1-.51.13l-.18-.1a1.26,1.26,0,0,0,.11-.83l0,0,.43.26A.38.38,0,0,1,17.51,22.7Zm4-3.4a.37.37,0,0,1-.5.12l-.44-.28h0l-1.71-1s0,0-.05,0a.46.46,0,0,0-.38,0,.52.52,0,0,0-.21.18.59.59,0,0,1,0,.08.48.48,0,0,0,.08.45.43.43,0,0,0,.12.11l1.29.8.42.25a.36.36,0,0,1,.16.22.38.38,0,0,1,0,.28.37.37,0,0,1-.5.12l-.5-.3h0L18.79,20h0l-.7-.43a.48.48,0,0,0-.64.15.48.48,0,0,0,.16.65l.9.55.21.13a.36.36,0,0,1,.17.23.39.39,0,0,1-.27.44.39.39,0,0,1-.28,0l-.9-.55a.47.47,0,0,0-.7.31,1.29,1.29,0,0,0-.39-.38,1.39,1.39,0,0,0-.5-.19,1.32,1.32,0,0,0-.61-1.17,1.37,1.37,0,0,0-.51-.19,1.31,1.31,0,0,0-.61-1.16,1.42,1.42,0,0,0-.52-.19A1.28,1.28,0,0,0,13,17a1.25,1.25,0,0,0-1-.17,1.32,1.32,0,0,0-.81.58l-1,1.54-.76-.44L11,14.63l.46.07a1.26,1.26,0,0,0,0,1.09,1.32,1.32,0,0,0,.74.67,1.27,1.27,0,0,0,1-.05l1.59-.75a1.83,1.83,0,0,1,.89-.16,1.76,1.76,0,0,1,.77.26l5,3a.37.37,0,0,1,.17.22A.39.39,0,0,1,21.52,19.3Zm-.39-1.76L16.93,15a2.75,2.75,0,0,0-1.18-.39,2.7,2.7,0,0,0-1.37.25l-1.59.75a.39.39,0,0,1-.28,0,.38.38,0,0,1-.22-.47.37.37,0,0,1,.19-.2l2-1a1.47,1.47,0,0,1,.75-.13l2.52.24a.48.48,0,0,0,.36-.12l.28-.26,3.17,3.37Z"/></g></g></svg>