<svg xmlns="http://www.w3.org/2000/svg" viewBox="0 0 17.32 19.97"><defs><style>.cls-1{fill:#211d57;}</style></defs><title>Recurso 77</title><g id="Capa_2" data-name="Capa 2"><g id="Capa_1-2" data-name="Capa 1"><path class="cls-1" d="M5.63,17.13a.33.33,0,0,0,0,.66h4.42a.33.33,0,1,0,0-.66Z"/><path class="cls-1" d="M10.75,9.72a.63.63,0,0,0-.15-.54l-.11-.11a2.33,2.33,0,0,0,.08-.59h0a2.43,2.43,0,0,0-.85-1.81.35.35,0,0,0-.14-.25A2.51,2.51,0,0,0,8.06,5.9H7.83a2.26,2.26,0,0,0-1.25.45.32.32,0,0,0-.28.06,2.78,2.78,0,0,0-1,2.07,2.34,2.34,0,0,0,.09.59l-.11.11a.67.67,0,0,0-.16.54l.12.72a.59.59,0,0,0,.5.5c0,.08,0,.18.09.31a1.78,1.78,0,0,0,.92,1.14l.31.17a1.91,1.91,0,0,0,1.74,0l.32-.17a1.81,1.81,0,0,0,.92-1.14c0-.13.06-.23.08-.31a.6.6,0,0,0,.51-.5ZM6.48,7.15a.31.31,0,0,0,.22-.06,2.06,2.06,0,0,1,1.13-.52h.23a1.9,1.9,0,0,1,1,.28.38.38,0,0,0,.13.24A1.75,1.75,0,0,1,9.9,8.48v.13l-.16-.25a.34.34,0,0,0-.38-.14A1.59,1.59,0,0,1,8,8l-.44-.29a.33.33,0,0,0-.42,0L7,7.87A.61.61,0,0,1,6.46,8a.33.33,0,0,0-.39.18L6,8.38A2.14,2.14,0,0,1,6.48,7.15ZM10,10.29H9.87a.34.34,0,0,0-.33.26s0,.09-.14.53a1.13,1.13,0,0,1-.58.72L8.5,12a1.23,1.23,0,0,1-1.12,0l-.31-.17a1.14,1.14,0,0,1-.59-.72l-.14-.52A.32.32,0,0,0,6,10.29H5.9l-.1-.63.1,0a.34.34,0,0,0,.31-.19l.36-.79a1.33,1.33,0,0,0,.86-.28l.22.14a2.21,2.21,0,0,0,1.65.36l.4.61a.34.34,0,0,0,.39.13Z"/><path class="cls-1" d="M11.29,16.06a1.72,1.72,0,0,1-.28-.47H3.45a.34.34,0,1,0,0,.67h8Z"/><path class="cls-1" d="M17,17.54,15.68,16V4.34h0a.19.19,0,0,1,0-.08h0a.19.19,0,0,0,0-.07v0l0-.05v0L15.54,4,11.66.14,11.6.08h0l-.05,0h0l-.08,0H.47A.47.47,0,0,0,0,.47v19A.47.47,0,0,0,.47,20H14.71a1.79,1.79,0,0,1-.25-.23l-.6-.7H.93V.93h9.94V4.34a.47.47,0,0,0,.46.47h3.41V14.92l-.9-1.05a1.33,1.33,0,0,0-.88-.45,1.27,1.27,0,0,0-.74.17l-.68-.78A5,5,0,0,0,8.3,4.33a5,5,0,1,0-.37,10,5,5,0,0,0,2.91-.93l.67.78a1.3,1.3,0,0,0,0,1.64l3.18,3.68a1.23,1.23,0,0,0,.87.44h.1a1.3,1.3,0,0,0,.84-.31l.35-.31h0A1.29,1.29,0,0,0,17,17.54ZM11.8,3.88V1.59l2.28,2.29ZM4.83,12a4.08,4.08,0,0,1-1-3A4.09,4.09,0,0,1,7.92,5.25h.31A4.08,4.08,0,1,1,4.83,12Zm11.44,6.65-.35.3a.36.36,0,0,1-.5,0l-3.17-3.68a.34.34,0,0,1,0-.49l.35-.3a.31.31,0,0,1,.22-.09h0a.37.37,0,0,1,.24.12l3.17,3.68A.36.36,0,0,1,16.27,18.65Z"/></g></g></svg>