<svg xmlns="http://www.w3.org/2000/svg" viewBox="0 0 13.25 19.92"><defs><style>.cls-1{fill:#211d57;}</style></defs><title>Recurso 117</title><g id="Capa_2" data-name="Capa 2"><g id="Capa_1-2" data-name="Capa 1"><path class="cls-1" d="M10.87,18H2.34a.34.34,0,0,1,0-.67h8.53a.34.34,0,0,1,0,.67Z"/><path class="cls-1" d="M8.6,16.71a.71.71,0,0,1-.51-.21.78.78,0,0,1-.23-.66,1.33,1.33,0,0,0-.65.39c-.53.53-.92.47-1.11.39s-.48-.35-.47-1-.14-.72-.14-.73a.45.45,0,0,0-.19.08,2.44,2.44,0,0,0-.88,1.38A.34.34,0,0,1,4,16.6a.34.34,0,0,1-.28-.38c.12-.8,1-2.08,1.78-2,.35,0,.76.29.76,1.39a.77.77,0,0,0,.06.41.7.7,0,0,0,.38-.24c.43-.44,1.09-.75,1.52-.52a.58.58,0,0,1,.26.68.11.11,0,0,0,0,.1.07.07,0,0,0,.07,0,.48.48,0,0,0,.23-.14.33.33,0,0,1,.55.37,1.05,1.05,0,0,1-.62.41A.57.57,0,0,1,8.6,16.71Z"/><path class="cls-1" d="M1.88,5.11v8a.47.47,0,0,0,.46.47h8.53a.47.47,0,0,0,.47-.47v-8a.47.47,0,0,0-.47-.47H2.34A.47.47,0,0,0,1.88,5.11Zm.93.47H10.4v7H2.81Z"/><path class="cls-1" d="M11.81,1.9H8.54v.93h3.27c.22,0,.5.44.5.77V18.49a.5.5,0,0,1-.5.5H1.44a.51.51,0,0,1-.51-.5V3.33a.51.51,0,0,1,.51-.5H5v.36a1,1,0,0,0,1,1H7.24a1,1,0,0,0,1-1V1a1,1,0,0,0-1-1H6A1,1,0,0,0,5,1V1.9H1.44A1.43,1.43,0,0,0,0,3.33V18.49a1.43,1.43,0,0,0,1.44,1.43H11.81a1.44,1.44,0,0,0,1.44-1.43V3.6A1.68,1.68,0,0,0,11.81,1.9ZM6,1a0,0,0,0,1,0,0H7.24a0,0,0,0,1,0,0V3.19a0,0,0,0,1,0,0H6a0,0,0,0,1,0,0Z"/><path class="cls-1" d="M8.9,8.85A1.79,1.79,0,0,0,9,8.34H9a2.18,2.18,0,0,0-.75-1.62.33.33,0,0,0-.14-.24A2.26,2.26,0,0,0,6.71,6H6.5a2,2,0,0,0-1.1.4.32.32,0,0,0-.27.06,2.47,2.47,0,0,0-.89,1.87,1.79,1.79,0,0,0,.07.51l-.09.08a.64.64,0,0,0-.14.52l.1.63a.56.56,0,0,0,.46.47,1.76,1.76,0,0,0,.06.25,1.68,1.68,0,0,0,.84,1l.28.15a1.65,1.65,0,0,0,.79.19A1.7,1.7,0,0,0,7.4,12l.28-.15a1.66,1.66,0,0,0,.83-1l.07-.25A.58.58,0,0,0,9,10.08l.11-.64A.67.67,0,0,0,9,8.93.34.34,0,0,0,8.9,8.85ZM5.32,7.2a.31.31,0,0,0,.21-.07,1.87,1.87,0,0,1,1-.45h.21a1.55,1.55,0,0,1,.84.24.36.36,0,0,0,.13.21,1.57,1.57,0,0,1,.63,1.2l-.08-.12a.35.35,0,0,0-.38-.14,1.37,1.37,0,0,1-1.16-.18l-.38-.26a.33.33,0,0,0-.42,0l-.11.1a.48.48,0,0,1-.47.12A.33.33,0,0,0,4.94,8,1.92,1.92,0,0,1,5.32,7.2Zm3,2.7a.34.34,0,0,0-.32.27s0,.09-.12.46a1.06,1.06,0,0,1-.5.62l-.28.15a1.08,1.08,0,0,1-1,0l-.28-.15a1,1,0,0,1-.5-.62,3.64,3.64,0,0,1-.12-.46A.34.34,0,0,0,4.9,9.9H4.82l-.07-.47h0a.34.34,0,0,0,.3-.19l.32-.68a1.14,1.14,0,0,0,.73-.24l.17.11a2,2,0,0,0,1.47.33l.34.52a.37.37,0,0,0,.33.15l-.07.46Z"/></g></g></svg>