<svg xmlns="http://www.w3.org/2000/svg" viewBox="0 0 20.05 19.73"><defs><style>.cls-1{fill:#211d57;}</style></defs><title>Recurso 118</title><g id="Capa_2" data-name="Capa 2"><g id="Capa_1-2" data-name="Capa 1"><path class="cls-1" d="M19.58,9.47H18.52V5.16a.47.47,0,0,0-.46-.47H17a3.56,3.56,0,0,0,.13-1,3.71,3.71,0,0,0-7.42,0,3.93,3.93,0,0,0,.13,1H9.51a3.71,3.71,0,0,0-7.36,0H1.51A1.52,1.52,0,0,0,0,6.21v12a1.52,1.52,0,0,0,1.51,1.51H18.06a.47.47,0,0,0,.46-.46V14.88h1.06a.47.47,0,0,0,.47-.47V9.94A.47.47,0,0,0,19.58,9.47ZM10.67,3.71a2.78,2.78,0,0,1,5.56,0,2.7,2.7,0,0,1-.18,1h-5.2A2.7,2.7,0,0,1,10.67,3.71ZM5.83,2.38A2.79,2.79,0,0,1,8.57,4.69H3.09A2.79,2.79,0,0,1,5.83,2.38ZM17.59,18.8H1.51a.58.58,0,0,1-.58-.58v-12a.58.58,0,0,1,.58-.58H17.59V9.47H14.93a2.26,2.26,0,0,0-2.26,2.26v.89a2.26,2.26,0,0,0,2.26,2.26h2.66V18.8ZM19.11,14H14.93a1.34,1.34,0,0,1-1.33-1.33v-.89a1.34,1.34,0,0,1,1.33-1.33h4.18Z"/><path class="cls-1" d="M15.47,11a1.22,1.22,0,1,0,1.22,1.22A1.22,1.22,0,0,0,15.47,11Zm0,1.78a.56.56,0,0,1,0-1.11.56.56,0,0,1,0,1.11Z"/><path class="cls-1" d="M7.83,12.19a1.34,1.34,0,0,0,.8-1.26v0A1.24,1.24,0,0,0,8.26,10a1.67,1.67,0,0,0-.84-.42V8.7A.38.38,0,0,0,7,8.32a.39.39,0,0,0-.39.38v.78H5.94V8.7a.38.38,0,0,0-.38-.38.39.39,0,0,0-.39.38v.78H4.75a.49.49,0,0,0-.5.5v4.65a.49.49,0,0,0,.5.5h.42v.72a.39.39,0,0,0,.39.38.38.38,0,0,0,.38-.38v-.72h.71v.72a.39.39,0,0,0,.39.38.38.38,0,0,0,.38-.38v-.77c.94-.14,1.53-.66,1.53-1.5v0A1.38,1.38,0,0,0,7.83,12.19Zm-.19-1.11h0c0,.52-.43.77-1.06.77H5.22v-1.5H6.65C7.29,10.36,7.64,10.63,7.64,11.08ZM8,13.47c0,.51-.41.78-1.09.78H5.22V12.7H6.8c.78,0,1.16.28,1.16.76Z"/></g></g></svg>