<svg xmlns="http://www.w3.org/2000/svg" viewBox="0 0 18.22 18.57"><defs><style>.cls-1{fill:#211d57;}</style></defs><title>Recurso 122</title><g id="Capa_2" data-name="Capa 2"><g id="Capa_1-2" data-name="Capa 1"><path class="cls-1" d="M15.4,0H2.82A2.83,2.83,0,0,0,0,2.82V18.13H0a.13.13,0,0,0,0,.06v0s0,0,0,0a.08.08,0,0,1,0,0v0a.21.21,0,0,0,0,.06h0l.05.06,0,0a.1.1,0,0,0,0,0h0l.06,0h0l.09,0H.61l.05,0h0L2,17.57l1.32.92a.44.44,0,0,0,.49,0l1.33-.92,1.32.92a.45.45,0,0,0,.5,0l1.32-.92,1.33.92a.44.44,0,0,0,.49,0l1.33-.92,1.32.92a.43.43,0,0,0,.68-.36v-2.5l-.42,0a3.15,3.15,0,0,1-.44,0v1.69l-.9-.62a.4.4,0,0,0-.49,0l-1.32.92-1.33-.92a.4.4,0,0,0-.49,0l-1.33.92L5.4,16.69a.42.42,0,0,0-.5,0l-1.32.92-1.33-.92a.41.41,0,0,0-.49,0l-.89.62V2.82A2,2,0,0,1,2.82.87H13.37a2.78,2.78,0,0,0-.79,1.95V7.54a3.92,3.92,0,1,0,.86,0V2.82a2,2,0,0,1,3.91,0V4.9h-3.6v.86h4a.44.44,0,0,0,.44-.43V2.82A2.83,2.83,0,0,0,15.4,0Zm.67,11.43a3,3,0,1,1-3.05-3A3,3,0,0,1,16.07,11.43Z"/><path class="cls-1" d="M11.57,3.89V2.74a.31.31,0,0,0-.31-.31H2.42a.31.31,0,0,0-.31.31V3.89a.31.31,0,0,0,.31.31h8.84A.31.31,0,0,0,11.57,3.89ZM11,3.58H2.73V3.05H11Z"/><path class="cls-1" d="M3.66,9.52H2.42a.31.31,0,0,0,0,.62H3.66a.31.31,0,1,0,0-.62Z"/><path class="cls-1" d="M8.23,9.52h-3a.31.31,0,0,0,0,.62h3a.31.31,0,1,0,0-.62Z"/><path class="cls-1" d="M3.66,11.21H2.42a.31.31,0,0,0,0,.62H3.66a.31.31,0,1,0,0-.62Z"/><path class="cls-1" d="M8.23,11.21h-3a.31.31,0,0,0,0,.62h3a.31.31,0,0,0,0-.62Z"/><path class="cls-1" d="M3.66,12.9H2.42a.31.31,0,0,0,0,.62H3.66a.31.31,0,1,0,0-.62Z"/><path class="cls-1" d="M8.23,12.9h-3a.31.31,0,0,0,0,.62h3a.31.31,0,1,0,0-.62Z"/><path class="cls-1" d="M3.66,14.59H2.42a.31.31,0,1,0,0,.62H3.66a.31.31,0,0,0,0-.62Z"/><path class="cls-1" d="M8.23,14.59h-3a.31.31,0,0,0,0,.62h3a.31.31,0,1,0,0-.62Z"/><path class="cls-1" d="M12.71,9.13v.43a1,1,0,0,0-.7.94,1,1,0,0,0,.47.84l.75.46a.37.37,0,0,1,.17.31v.06a.36.36,0,0,1-.36.37h0a.37.37,0,0,1-.37-.37h0a.31.31,0,1,0-.61,0h0a1,1,0,0,0,.72.95v.52a.31.31,0,0,0,.62,0v-.53a1,1,0,0,0,.67-.94v-.06a1,1,0,0,0-.47-.84l-.75-.46a.35.35,0,0,1-.18-.31.37.37,0,0,1,.37-.36h0a.36.36,0,0,1,.36.36v.17a.31.31,0,0,0,.62,0V10.5a1,1,0,0,0-.69-.94V9.13A.31.31,0,0,0,13,8.82.31.31,0,0,0,12.71,9.13Z"/><path class="cls-1" d="M8.23,6.71H2.42a.31.31,0,1,0,0,.61H8.23a.31.31,0,1,0,0-.61Z"/></g></g></svg>