<svg xmlns="http://www.w3.org/2000/svg" viewBox="0 0 19.78 19.97"><defs><style>.cls-1{fill:#211d57;}</style></defs><title>Recurso 81</title><g id="Capa_2" data-name="Capa 2"><g id="Capa_1-2" data-name="Capa 1"><path class="cls-1" d="M14.37,17.91a3.21,3.21,0,1,0-3.21-3.21A3.21,3.21,0,0,0,14.37,17.91Zm0-5.75a2.54,2.54,0,1,1-2.55,2.54A2.54,2.54,0,0,1,14.37,12.16Z"/><path class="cls-1" d="M14,16.16v.37a.34.34,0,0,0,.67,0v-.38a.91.91,0,0,0,.56-.83v-.05a.9.9,0,0,0-.43-.76l-.62-.38a.23.23,0,0,1-.11-.2.22.22,0,0,1,.23-.22h0a.22.22,0,0,1,.22.22v.14a.34.34,0,0,0,.67,0v-.14a.9.9,0,0,0-.57-.83v-.3a.34.34,0,0,0-.67,0v.3a.88.88,0,0,0-.58.83.89.89,0,0,0,.42.76l.62.39a.21.21,0,0,1,.11.19v.05a.22.22,0,0,1-.22.22h0a.22.22,0,0,1-.23-.22v0a.34.34,0,0,0-.67,0v0A.9.9,0,0,0,14,16.16Z"/><path class="cls-1" d="M1.85,8.82H7.93a.34.34,0,0,0,.34-.33V7.19a.34.34,0,0,0-.34-.33H1.85a.34.34,0,0,0-.34.33v1.3A.34.34,0,0,0,1.85,8.82Zm.33-1.29H7.6v.63H2.18Z"/><path class="cls-1" d="M1.85,11.47H3.14a.33.33,0,0,0,.34-.33V9.84a.34.34,0,0,0-.34-.33H1.85a.34.34,0,0,0-.34.33v1.3A.33.33,0,0,0,1.85,11.47Zm.33-1.29h.63v.63H2.18Z"/><path class="cls-1" d="M5.54,9.51H4.24a.33.33,0,0,0-.33.33v1.3a.33.33,0,0,0,.33.33h1.3a.33.33,0,0,0,.33-.33V9.84A.33.33,0,0,0,5.54,9.51Zm-.34,1.3H4.57v-.63H5.2Z"/><path class="cls-1" d="M7.93,9.51H6.63a.33.33,0,0,0-.33.33v1.3a.33.33,0,0,0,.33.33h1.3a.33.33,0,0,0,.34-.33V9.84A.34.34,0,0,0,7.93,9.51Zm-.33,1.3H7v-.63H7.6Z"/><path class="cls-1" d="M1.85,13.9H3.14a.34.34,0,0,0,.34-.33v-1.3a.34.34,0,0,0-.34-.33H1.85a.34.34,0,0,0-.34.33v1.3A.34.34,0,0,0,1.85,13.9Zm.33-1.29h.63v.63H2.18Z"/><path class="cls-1" d="M5.54,11.94H4.24a.33.33,0,0,0-.33.33v1.3a.33.33,0,0,0,.33.33h1.3a.33.33,0,0,0,.33-.33v-1.3A.33.33,0,0,0,5.54,11.94Zm-.34,1.3H4.57v-.63H5.2Z"/><path class="cls-1" d="M7.93,11.94H6.63a.33.33,0,0,0-.33.33v1.3a.33.33,0,0,0,.33.33h1.3a.34.34,0,0,0,.34-.33v-1.3A.34.34,0,0,0,7.93,11.94Zm-.33,1.3H7v-.63H7.6Z"/><path class="cls-1" d="M1.85,16.33H3.14A.34.34,0,0,0,3.48,16V14.7a.34.34,0,0,0-.34-.33H1.85a.34.34,0,0,0-.34.33V16A.34.34,0,0,0,1.85,16.33ZM2.18,15h.63v.64H2.18Z"/><path class="cls-1" d="M5.54,14.37H4.24a.33.33,0,0,0-.33.33V16a.33.33,0,0,0,.33.33h1.3A.33.33,0,0,0,5.87,16V14.7A.33.33,0,0,0,5.54,14.37Zm-.34,1.3H4.57V15H5.2Z"/><path class="cls-1" d="M7.93,14.37H6.63a.33.33,0,0,0-.33.33V16a.33.33,0,0,0,.33.33h1.3A.34.34,0,0,0,8.27,16V14.7A.34.34,0,0,0,7.93,14.37Zm-.33,1.3H7V15H7.6Z"/><path class="cls-1" d="M11.49,9.57h5.75a.34.34,0,1,0,0-.67H11.49a.34.34,0,0,0,0,.67Z"/><path class="cls-1" d="M11.49,7.5h5.75a.34.34,0,1,0,0-.67H11.49a.34.34,0,0,0,0,.67Z"/><path class="cls-1" d="M19.78,4.33a.22.22,0,0,0,0-.08h0s0,0,0-.07v0l0-.05v0L19.64,4,15.77.14,15.71.08h0l-.06,0h0l-.07,0h-11A.47.47,0,0,0,4.1.47V5.19H.47A.47.47,0,0,0,0,5.66V17.58a.47.47,0,0,0,.47.47H9.29a.47.47,0,0,0,.46-.47V5.66a.47.47,0,0,0-.46-.47H5V.93H15V4.34a.47.47,0,0,0,.47.47h3.41V19H5v-.66H4.1v1.13a.47.47,0,0,0,.47.46H19.31a.47.47,0,0,0,.47-.46V4.34Zm-11,1.79v11H.93v-11Zm7.09-2.24V1.59l2.28,2.29Z"/></g></g></svg>