<svg xmlns="http://www.w3.org/2000/svg" viewBox="0 0 18.06 19.97"><defs><style>.cls-1{fill:#211d57;}</style></defs><title>Recurso 85</title><g id="Capa_2" data-name="Capa 2"><g id="Capa_1-2" data-name="Capa 1"><path class="cls-1" d="M18.06,12.32A2.93,2.93,0,0,0,15.6,9.43V4.81h1.47a.47.47,0,0,0,.47-.47V2.72A2.72,2.72,0,0,0,14.82,0H2.72A2.72,2.72,0,0,0,0,2.72V19.51A.47.47,0,0,0,.47,20H15.13a.47.47,0,0,0,.47-.46V18.19l-.47-.35-.46.35V19H.93V2.72a1.79,1.79,0,1,1,3.57,0V4.34A.47.47,0,0,0,5,4.81h9.7V9.43a2.92,2.92,0,0,0-1.26,5.25v3.1a.49.49,0,0,0,.26.42.48.48,0,0,0,.49,0l1-.74,1,.74a.47.47,0,0,0,.28.09.54.54,0,0,0,.21-.05.48.48,0,0,0,.25-.42v-3.1A2.92,2.92,0,0,0,18.06,12.32ZM16.6,2.72V3.88H5.44V2.72A2.72,2.72,0,0,0,4.76.93H14.82A1.79,1.79,0,0,1,16.6,2.72Zm-.68,14.13-.5-.38a.47.47,0,0,0-.57,0l-.5.38V15.13a2.86,2.86,0,0,0,1.57,0v1.72Zm-.78-2.54a2,2,0,1,1,2-2A2,2,0,0,1,15.14,14.31Z"/><path class="cls-1" d="M9.46,17.52a1,1,0,0,0,.64.27,1,1,0,0,0,.24,0,1.47,1.47,0,0,0,.82-.55.32.32,0,0,0-.09-.46.33.33,0,0,0-.46.09.83.83,0,0,1-.44.27A.26.26,0,0,1,9.92,17a.32.32,0,0,1-.09-.3.69.69,0,0,0-.31-.83c-.49-.27-1.38.05-2.06.74-.38.37-.65.45-.75.4s-.2-.22-.19-.76c0-1.52-.53-1.88-1-1.91-1-.08-2.31,1.73-2.48,2.86a.33.33,0,0,0,.28.38.33.33,0,0,0,.38-.28C3.87,16.33,5,15,5.49,15c.17,0,.37.35.37,1.24s.3,1.26.59,1.39.94,0,1.48-.55a1.74,1.74,0,0,1,1.26-.63.24.24,0,0,1,0,.11A1,1,0,0,0,9.46,17.52Z"/><path class="cls-1" d="M2.64,6.9H12.87a.34.34,0,0,0,0-.67H2.64a.34.34,0,0,0,0,.67Z"/><path class="cls-1" d="M13.2,8.45a.33.33,0,0,0-.33-.33H2.64a.33.33,0,0,0-.33.33.33.33,0,0,0,.33.33H12.87A.33.33,0,0,0,13.2,8.45Z"/><path class="cls-1" d="M11.6,10.34a.34.34,0,0,0-.33-.34H2.64a.34.34,0,0,0,0,.67h8.63A.33.33,0,0,0,11.6,10.34Z"/><path class="cls-1" d="M10.53,12.22a.33.33,0,0,0-.33-.33H2.64a.33.33,0,0,0-.33.33.33.33,0,0,0,.33.33H10.2A.32.32,0,0,0,10.53,12.22Z"/></g></g></svg>