<svg xmlns="http://www.w3.org/2000/svg" viewBox="0 0 22.09 21.88"><defs><style>.cls-1{fill:#211d57;}</style></defs><title>Recurso 89</title><g id="Capa_2" data-name="Capa 2"><g id="Capa_1-2" data-name="Capa 1"><path class="cls-1" d="M9.61,18.36a.88.88,0,1,0,.87.87A.88.88,0,0,0,9.61,18.36Z"/><path class="cls-1" d="M15.09,19.67a1.18,1.18,0,0,1-1.19,1.18H5.31a1.18,1.18,0,0,1-1.18-1.18V5.25A1.18,1.18,0,0,1,5.31,4.07H13.9a1.18,1.18,0,0,1,1.19,1.18v1h1v-1A2.22,2.22,0,0,0,13.9,3H5.31A2.22,2.22,0,0,0,3.1,5.25V19.67a2.21,2.21,0,0,0,2.21,2.21H13.9a2.21,2.21,0,0,0,2.22-2.21V16.21h-1Z"/><path class="cls-1" d="M2,5a.36.36,0,0,1-.37-.36,3,3,0,0,1,3-3A.36.36,0,0,1,5,2a.37.37,0,0,1-.36.37,2.3,2.3,0,0,0-2.3,2.3A.37.37,0,0,1,2,5Z"/><path class="cls-1" d="M.37,5A.37.37,0,0,1,0,4.63,4.63,4.63,0,0,1,4.63,0,.37.37,0,0,1,5,.37a.37.37,0,0,1-.36.37A3.89,3.89,0,0,0,.74,4.63.37.37,0,0,1,.37,5Z"/><path class="cls-1" d="M21,6.65H10a1.1,1.1,0,0,0-1.1,1.1v7a1.1,1.1,0,0,0,1.1,1.1H21a1.1,1.1,0,0,0,1.1-1.1v-7A1.1,1.1,0,0,0,21,6.65ZM9.88,9.17H21.05v1H9.88ZM10,7.69H21a.06.06,0,0,1,.06.06v.68H9.88V7.75A.07.07,0,0,1,10,7.69ZM21,14.8H10s-.07,0-.07-.06v-3.8H21.05v3.8A.05.05,0,0,1,21,14.8Z"/><path class="cls-1" d="M20,12.17H18a.37.37,0,0,0-.37.37V14a.38.38,0,0,0,.37.37H20A.38.38,0,0,0,20.4,14V12.54A.37.37,0,0,0,20,12.17Zm-.37,1.48H18.34v-.74h1.32Z"/></g></g></svg>