<svg xmlns="http://www.w3.org/2000/svg" viewBox="0 0 19.87 19.72"><defs><style>.cls-1{fill:#211d57;}</style></defs><title>Recurso 93</title><g id="Capa_2" data-name="Capa 2"><g id="Capa_1-2" data-name="Capa 1"><path class="cls-1" d="M12.23,10.62H11.7a1.29,1.29,0,0,1,.53-.69V9.18A2,2,0,0,0,11,10.62h-.44a.33.33,0,1,0,0,.66h1.66v-.66Z"/><path class="cls-1" d="M10.57,6H11a2,2,0,0,0,1.22,1.43V6.65A1.29,1.29,0,0,1,11.7,6h.53V5.3H10.57a.33.33,0,1,0,0,.66Z"/><path class="cls-1" d="M7.79,6.47V6.06a.34.34,0,0,0-.67,0v.4a1,1,0,0,0-.7,1,1,1,0,0,0,.48.85l.74.46A.32.32,0,0,1,7.8,9v.06a.33.33,0,0,1-.33.33h0a.33.33,0,0,1-.33-.33V9a.34.34,0,0,0-.67,0v0a1,1,0,0,0,.71.95v.49a.34.34,0,1,0,.67,0V10a1,1,0,0,0,.67-.94V9A1,1,0,0,0,8,8.15l-.74-.46a.32.32,0,0,1-.16-.28.33.33,0,0,1,.33-.33h0a.33.33,0,0,1,.33.33v.16a.34.34,0,1,0,.67,0V7.41A1,1,0,0,0,7.79,6.47Z"/><path class="cls-1" d="M13,14.6a.47.47,0,0,0,.47-.47V2.43A.47.47,0,0,0,13,2a.46.46,0,0,0-.46.46v11.7A.46.46,0,0,0,13,14.6Z"/><path class="cls-1" d="M17.61,0H8.54A2.26,2.26,0,0,0,6.28,2.26V3.79H1.12A1.13,1.13,0,0,0,0,4.92v6.73a1.12,1.12,0,0,0,1.12,1.12H6.28v4.69a2.26,2.26,0,0,0,2.26,2.26h9.07a2.26,2.26,0,0,0,2.26-2.26V2.26A2.26,2.26,0,0,0,17.61,0Zm1.33,17.46a1.34,1.34,0,0,1-1.33,1.33H8.54a1.33,1.33,0,0,1-1.32-1.33V12.77h5v-.93H1.12a.2.2,0,0,1-.19-.19V4.92a.19.19,0,0,1,.19-.19H12.23V3.79h-5V2.26A1.33,1.33,0,0,1,8.54.93h9.07a1.34,1.34,0,0,1,1.33,1.33Z"/><path class="cls-1" d="M3.87,6h.45a.33.33,0,0,0,0-.66H1.85a.33.33,0,0,0-.33.33V11a.33.33,0,0,0,.33.33H4.32a.33.33,0,0,0,0-.66H3.87A2,2,0,0,0,2.19,9.06V7.52A2,2,0,0,0,3.87,6ZM2.19,6h1a1.31,1.31,0,0,1-1,.88Zm1,4.66h-1V9.73A1.34,1.34,0,0,1,3.19,10.62Z"/><path class="cls-1" d="M13.08,15.56a1,1,0,1,0,1,1A1,1,0,0,0,13.08,15.56Zm0,1.39a.36.36,0,0,1-.36-.36.36.36,0,0,1,.36-.36.36.36,0,0,1,.36.36A.37.37,0,0,1,13.08,17Z"/></g></g></svg>