<svg xmlns="http://www.w3.org/2000/svg" viewBox="0 0 19.87 19.98"><defs><style>.cls-1{fill:#211d57;}</style></defs><title>Recurso 97</title><g id="Capa_2" data-name="Capa 2"><g id="Capa_1-2" data-name="Capa 1"><path class="cls-1" d="M8.53,12.13a5.81,5.81,0,0,0,1.83-.3.85.85,0,0,0,.64.28h4a.87.87,0,0,0,.88-.88v-.41a.88.88,0,0,0,.63-.84V9.56a.9.9,0,0,0-.39-.73V8.21a.9.9,0,0,0,.39-.73V7.06a.88.88,0,0,0-.89-.88h0V5.81a.87.87,0,0,0-.88-.88H11.31l-.07-.08a4.54,4.54,0,0,1-1-1.43A.46.46,0,0,0,10.73,3a.47.47,0,0,0-.47-.47h-.09l1-1.8a.48.48,0,0,0-.07-.54A.46.46,0,0,0,10.53,0L9.73.4A.55.55,0,0,1,9.19.35L8.8.08h0l0,0h0L8.66,0H8.4l0,0h0l0,0h0L7.88.35A.55.55,0,0,1,7.34.4L6.54,0A.46.46,0,0,0,6,.15a.45.45,0,0,0-.07.54l1,1.8H6.81a.47.47,0,0,0,0,.94,4.67,4.67,0,0,1-1,1.42A5.24,5.24,0,0,0,4.19,8.37C4.19,11.15,6.53,12.13,8.53,12.13Zm7-5v.32H11.68V7.11h3.87Zm0,2.5v.32H11.68V9.61h3.87Zm-.38-.93H11.29V8.36h3.88Zm-.24,2.5H11.05v-.32h3.88v.32Zm-.26-5H10.79V5.86h3.88ZM8.41,1.12,8.53,1l.13.09a1.52,1.52,0,0,0,1.05.25L9.12,2.49H8L7.36,1.37A1.52,1.52,0,0,0,8.41,1.12ZM6.53,5.46a4.66,4.66,0,0,0,1.23-2H9.31a3.85,3.85,0,0,0,.92,1.66.89.89,0,0,0-.37.72v.42a.89.89,0,0,0,.88.88h0v.47a.9.9,0,0,0-.39.73v.42a.9.9,0,0,0,.39.73V10a.88.88,0,0,0-.63.84v.12a4.94,4.94,0,0,1-1.59.27c-.57,0-3.4-.14-3.4-2.83A4.34,4.34,0,0,1,6.53,5.46Z"/><path class="cls-1" d="M8.22,9.23v.45a.34.34,0,0,0,.67,0V9.22a1,1,0,0,0,.63-.9V8.26a1,1,0,0,0-.46-.81L8.36,7a.29.29,0,0,1-.14-.25.29.29,0,0,1,.29-.29h.05a.29.29,0,0,1,.29.29v.15a.34.34,0,1,0,.67,0V6.77a1,1,0,0,0-.64-.9V5.5a.34.34,0,0,0-.67,0v.36A1,1,0,0,0,8,7.59l.7.43a.27.27,0,0,1,.14.24v.06a.29.29,0,0,1-.29.29H8.51a.29.29,0,0,1-.29-.29v0a.34.34,0,0,0-.67,0v0A1,1,0,0,0,8.22,9.23Z"/><path class="cls-1" d="M19.8,14.66A1.83,1.83,0,0,0,17.36,14l-3.23,1.41a1.32,1.32,0,0,0-.92-.81l-2.05-.5a5.78,5.78,0,0,1-2.06-1A3.2,3.2,0,0,0,5,13.27a.78.78,0,0,1-.51.2h-.5v-.62a.46.46,0,0,0-.47-.46h-3a.46.46,0,0,0-.47.46v6.65A.47.47,0,0,0,.47,20h3a.47.47,0,0,0,.47-.47v-1H5.46a4,4,0,0,1,1,.12L11,19.81l0,0a3.87,3.87,0,0,0,.48,0,3.4,3.4,0,0,0,.94-.14l.11,0,7.1-4.37A.48.48,0,0,0,19.8,14.66ZM3,19H.93V13.33H3Zm9.11-.2a2.25,2.25,0,0,1-.93.07l-4.5-1.19a5,5,0,0,0-1.22-.16H3.94V14.4h.5A1.69,1.69,0,0,0,5.58,14a2.29,2.29,0,0,1,3-.15A6.43,6.43,0,0,0,10.94,15l2.05.5a.48.48,0,0,1,.31.55.45.45,0,0,1-.13.23l-3.73-.55a.47.47,0,0,0-.14.92l3.77.56h.12a1.11,1.11,0,0,0,1-.8l3.6-1.57,0,0a.87.87,0,0,1,.88,0Z"/></g></g></svg>