<svg xmlns="http://www.w3.org/2000/svg" viewBox="0 0 19.97 19.7"><defs><style>.cls-1{fill:#211d57;}</style></defs><title>Recurso 101</title><g id="Capa_2" data-name="Capa 2"><g id="Capa_1-2" data-name="Capa 1"><path class="cls-1" d="M7.4,2.62h.69a.34.34,0,1,0,0-.67H7.4a.34.34,0,1,0,0,.67Z"/><path class="cls-1" d="M9.11,2.62h2.28a.34.34,0,0,0,0-.67H9.11a.34.34,0,0,0,0,.67Z"/><path class="cls-1" d="M9.12,7.64a.33.33,0,0,0-.33-.33H2.25a.33.33,0,0,0-.33.33V9.23a.34.34,0,0,0,.33.34H8.79a.34.34,0,0,0,.33-.34ZM8.45,8.9H2.59V8H8.45Z"/><path class="cls-1" d="M2.25,12.13H3.67A.34.34,0,0,0,4,11.79V10.38a.33.33,0,0,0-.33-.33H2.25a.33.33,0,0,0-.33.33v1.41A.34.34,0,0,0,2.25,12.13Zm.34-1.42h.74v.75H2.59Z"/><path class="cls-1" d="M4.83,12.13H6.25a.34.34,0,0,0,.33-.34V10.38a.33.33,0,0,0-.33-.33H4.83a.33.33,0,0,0-.33.33v1.41A.34.34,0,0,0,4.83,12.13Zm.34-1.42h.74v.75H5.17Z"/><path class="cls-1" d="M9.12,10.38a.33.33,0,0,0-.33-.33H7.37a.33.33,0,0,0-.33.33v1.41a.34.34,0,0,0,.33.34H8.79a.34.34,0,0,0,.33-.34Zm-.67,1.08H7.71v-.75h.74Z"/><path class="cls-1" d="M1.92,14.16a.33.33,0,0,0,.33.33H3.67A.33.33,0,0,0,4,14.16V12.74a.33.33,0,0,0-.33-.33H2.25a.33.33,0,0,0-.33.33Zm.67-1.08h.74v.74H2.59Z"/><path class="cls-1" d="M4.5,14.16a.33.33,0,0,0,.33.33H6.25a.33.33,0,0,0,.33-.33V12.74a.33.33,0,0,0-.33-.33H4.83a.33.33,0,0,0-.33.33Zm.67-1.08h.74v.74H5.17Z"/><path class="cls-1" d="M2.29,16.86H3.71A.34.34,0,0,0,4,16.52V15.11a.33.33,0,0,0-.33-.33H2.29a.33.33,0,0,0-.33.33v1.41A.34.34,0,0,0,2.29,16.86Zm.34-1.42h.74v.75H2.63Z"/><path class="cls-1" d="M4.88,16.86H6.29a.34.34,0,0,0,.33-.34V15.11a.33.33,0,0,0-.33-.33H4.88a.34.34,0,0,0-.34.33v1.41A.34.34,0,0,0,4.88,16.86Zm.33-1.42H6v.75H5.21Z"/><path class="cls-1" d="M8.79,12.41H7.37a.33.33,0,0,0-.33.33v3.78a.34.34,0,0,0,.33.34H8.79a.34.34,0,0,0,.33-.34V12.74A.33.33,0,0,0,8.79,12.41Zm-.34,3.78H7.71V13.08h.74Z"/><path class="cls-1" d="M16.48,13.21v-.45a.34.34,0,0,0-.67,0v.44a1,1,0,0,0-.74,1,1,1,0,0,0,.49.88l.79.49a.38.38,0,0,1,.18.32V16a.37.37,0,0,1-.37.38h-.05a.38.38,0,0,1-.38-.38v0a.33.33,0,0,0-.66,0v0a1,1,0,0,0,.76,1v.54a.33.33,0,0,0,.33.33.33.33,0,0,0,.33-.33v-.55a1,1,0,0,0,.71-1v-.06a1,1,0,0,0-.5-.89l-.79-.48a.38.38,0,0,1,.2-.7h.05a.37.37,0,0,1,.37.38v.17a.34.34,0,0,0,.67,0V14.2A1,1,0,0,0,16.48,13.21Z"/><path class="cls-1" d="M14.14,7.43h.69a.33.33,0,0,0,.34-.33.34.34,0,0,0-.34-.33h-.69a.34.34,0,0,0-.34.33A.33.33,0,0,0,14.14,7.43Z"/><path class="cls-1" d="M18.13,6.77H15.85a.33.33,0,0,0-.33.33.33.33,0,0,0,.33.33h2.28a.33.33,0,0,0,.33-.33A.33.33,0,0,0,18.13,6.77Z"/><path class="cls-1" d="M14.14,9.05h.69a.33.33,0,1,0,0-.66h-.69a.33.33,0,1,0,0,.66Z"/><path class="cls-1" d="M18.13,8.39H15.85a.33.33,0,0,0,0,.66h2.28a.33.33,0,1,0,0-.66Z"/><path class="cls-1" d="M15.17,10.34a.34.34,0,0,0-.34-.34h-.69a.34.34,0,1,0,0,.67h.69A.34.34,0,0,0,15.17,10.34Z"/><path class="cls-1" d="M18.13,10H15.85a.34.34,0,0,0,0,.67h2.28a.34.34,0,0,0,0-.67Z"/><path class="cls-1" d="M17.25,3.68h-4V.47A.47.47,0,0,0,12.76,0H6a.47.47,0,0,0-.46.47V4.88a2,2,0,0,0,1.91,2h2.69V17.64a.19.19,0,0,1-.19.19H1.12a.19.19,0,0,1-.19-.19V6.47a.19.19,0,0,1,.19-.18H5.7a2.31,2.31,0,0,1-.43-.94H1.12A1.12,1.12,0,0,0,0,6.47V17.64a1.13,1.13,0,0,0,1.12,1.13H10a1.13,1.13,0,0,0,1.12-1.13V6.86H12V6.4a1.45,1.45,0,0,0-.08-.47H8.79v0a1.79,1.79,0,0,1,3.5.5V19.23a.47.47,0,0,0,.46.47H19.5a.47.47,0,0,0,.47-.47V6.4A2.72,2.72,0,0,0,17.25,3.68Zm-4.95,0H10.51a2.73,2.73,0,0,0-2.61,2,.38.38,0,0,1-.36.29,1,1,0,0,1-1-1V.93H12.3V3.68ZM19,18.77H13.23V6.4a2.69,2.69,0,0,0-.47-1.53c-.06-.09-.13-.17-.2-.26h4.69A1.79,1.79,0,0,1,19,6.4Z"/></g></g></svg>