<svg xmlns="http://www.w3.org/2000/svg" viewBox="0 0 19.89 17.49"><defs><style>.cls-1{fill:#211d57;}</style></defs><title>Recurso 105</title><g id="Capa_2" data-name="Capa 2"><g id="Capa_1-2" data-name="Capa 1"><path class="cls-1" d="M19.77,8.5a.46.46,0,0,0-.66,0l-1.86,1.75L12.78,5.49l5-4.68a.46.46,0,0,0,0-.66.46.46,0,0,0-.66,0l-5.31,5a.46.46,0,0,0,0,.66l.27.29-.11.1L9.62,6a2.36,2.36,0,0,0-1.23.21L6.7,7,5.62,6.81l.07-.18a.5.5,0,0,0,0-.36A.49.49,0,0,0,5.42,6L1.17,4.37a.47.47,0,0,0-.61.26.48.48,0,0,0,.27.61L4.65,6.72,4.53,7h0L2.29,12.79.64,12.15a.48.48,0,0,0-.61.27A.47.47,0,0,0,.3,13l2.08.81a.38.38,0,0,0,.17,0,.58.58,0,0,0,.19,0A.53.53,0,0,0,3,13.57l.42-1.09.61.35,0,0a1.3,1.3,0,0,0,.42,1.79h0a1.22,1.22,0,0,0,.68.2h.18a1.24,1.24,0,0,0,.54.69,1.25,1.25,0,0,0,.69.2h.18a1.29,1.29,0,0,0,.54.7h0a1.31,1.31,0,0,0,.69.19h.17a1.35,1.35,0,0,0,.55.7,1.28,1.28,0,0,0,.68.2,1,1,0,0,0,.3,0,1.3,1.3,0,0,0,.81-.57l.17-.29.22.12a1.28,1.28,0,0,0,.65.18,1.31,1.31,0,0,0,1.11-.63,1.34,1.34,0,0,0,.18-.53h.05a1.53,1.53,0,0,0,.3,0,1.26,1.26,0,0,0,.8-.59,1.12,1.12,0,0,0,.18-.5h.08A1.3,1.3,0,0,0,15.28,14a1.24,1.24,0,0,0,.18-.52h0a1.3,1.3,0,0,0,.73-2.37l.29-.3.38.4a.48.48,0,0,0,.32.15h0a.5.5,0,0,0,.32-.13l2.2-2.07A.48.48,0,0,0,19.77,8.5ZM4.91,13.85a.36.36,0,0,1-.11-.5L6.27,11a.36.36,0,0,1,.5-.12.37.37,0,0,1,.12.5L5.41,13.74A.36.36,0,0,1,4.91,13.85Zm1.41.88a.36.36,0,0,1-.16-.22.38.38,0,0,1,0-.28l1.2-1.91a.35.35,0,0,1,.23-.16h.08a.33.33,0,0,1,.19.06.32.32,0,0,1,.16.22.35.35,0,0,1,0,.28l-1.2,1.91a.35.35,0,0,1-.23.16A.33.33,0,0,1,6.32,14.73Zm1.41.89a.42.42,0,0,1-.17-.23.39.39,0,0,1,.05-.28l.91-1.44a.36.36,0,1,1,.61.38l-.9,1.45A.37.37,0,0,1,7.73,15.62Zm1.4.88A.36.36,0,0,1,9,16l.61-1a.36.36,0,0,1,.31-.17.34.34,0,0,1,.19.05.35.35,0,0,1,.16.23.37.37,0,0,1,0,.27l-.6,1A.38.38,0,0,1,9.13,16.5Zm2.66-.73a.37.37,0,0,1-.51.13l-.18-.1a1.4,1.4,0,0,0,.11-.83l0,0,.43.26A.38.38,0,0,1,11.79,15.77Zm4-3.4a.36.36,0,0,1-.5.12l-.45-.27h0l-1.71-1.05-.06,0a.5.5,0,0,0-.38,0,.49.49,0,0,0-.2.18.36.36,0,0,0,0,.09.44.44,0,0,0,.07.44.32.32,0,0,0,.12.11l1.3.8.41.25a.36.36,0,0,1,.17.23.37.37,0,0,1,0,.27.36.36,0,0,1-.5.12l-.49-.3h0l-.42-.26h0l-.7-.43a.47.47,0,0,0-.64.16.46.46,0,0,0,.15.64l.91.56.21.13a.36.36,0,0,1,.16.22.35.35,0,0,1,0,.28.35.35,0,0,1-.23.16.36.36,0,0,1-.27,0l-.9-.56a.47.47,0,0,0-.64.16.44.44,0,0,0-.06.16,1.24,1.24,0,0,0-.4-.39,1.16,1.16,0,0,0-.5-.18,1.3,1.3,0,0,0-.6-1.18A1.24,1.24,0,0,0,9,12.58a1.28,1.28,0,0,0-.6-1.17,1.24,1.24,0,0,0-.53-.18,1.28,1.28,0,0,0-.6-1.14,1.34,1.34,0,0,0-1-.17,1.3,1.3,0,0,0-.81.58L4.51,12l-.76-.44L5.27,7.7l.46.07a1.3,1.3,0,0,0,0,1.09,1.28,1.28,0,0,0,1.72.62l1.6-.74A1.69,1.69,0,0,1,10,8.58a1.79,1.79,0,0,1,.77.25l5,3a.35.35,0,0,1,.16.23A.32.32,0,0,1,15.8,12.37Zm-.39-1.76L11.2,8A2.57,2.57,0,0,0,10,7.65a2.7,2.7,0,0,0-1.37.24l-1.59.75a.34.34,0,0,1-.28,0,.37.37,0,0,1-.21-.18.39.39,0,0,1,0-.28A.36.36,0,0,1,6.76,8l2-1a1.38,1.38,0,0,1,.75-.13l2.52.23A.44.44,0,0,0,12.41,7l.28-.25,3.18,3.37Z"/></g></g></svg>