<svg xmlns="http://www.w3.org/2000/svg" viewBox="0 0 20.03 20.01"><defs><style>.cls-1{fill:#211d57;}</style></defs><title>Recurso 109</title><g id="Capa_2" data-name="Capa 2"><g id="Capa_1-2" data-name="Capa 1"><path class="cls-1" d="M5.27,9.48a5.27,5.27,0,1,0,5.26,5.26A5.27,5.27,0,0,0,5.27,9.48Zm0,9.6A4.34,4.34,0,1,1,9.6,14.74,4.35,4.35,0,0,1,5.27,19.08Z"/><path class="cls-1" d="M20,5.27a5.27,5.27,0,1,0-5.26,5.26A5.27,5.27,0,0,0,20,5.27Zm-9.6,0A4.34,4.34,0,1,1,14.77,9.6,4.35,4.35,0,0,1,10.43,5.27Z"/><path class="cls-1" d="M15.12,8.32v-.8a1.28,1.28,0,0,0,.93-1.22V6.21a1.26,1.26,0,0,0-.6-1.07l-1-.64a.6.6,0,0,1,.31-1.11h.07a.59.59,0,0,1,.59.6v.23a.34.34,0,0,0,.67,0V4a1.25,1.25,0,0,0-1-1.22V2.1a.34.34,0,1,0-.67,0v.66a1.26,1.26,0,0,0-.37,2.31l1,.63a.62.62,0,0,1,.28.51V6.3a.59.59,0,0,1-.59.6h-.07a.6.6,0,0,1-.6-.6v0a.34.34,0,0,0-.67,0v0a1.26,1.26,0,0,0,1,1.23v.79a.34.34,0,1,0,.67,0Z"/><path class="cls-1" d="M19.05,10.79a.47.47,0,0,0-.46.36,4.31,4.31,0,0,1-3.75,3.33v-.6a.47.47,0,0,0-.26-.42.48.48,0,0,0-.5.06l-2.66,2.17a.49.49,0,0,0-.17.36.47.47,0,0,0,.18.36l2.65,2.16a.48.48,0,0,0,.3.11.53.53,0,0,0,.2-.05.46.46,0,0,0,.26-.42v-.64a5.26,5.26,0,0,0,4.79-5.24,5.2,5.2,0,0,0-.13-1.18A.47.47,0,0,0,19.05,10.79Zm-4.68,5.87a.47.47,0,0,0-.46.46v.11l-1.45-1.18,1.45-1.18V15a.47.47,0,0,0,.46.47,5.24,5.24,0,0,0,4.21-2.09A4.33,4.33,0,0,1,14.37,16.66Z"/><path class="cls-1" d="M1,9.22a.46.46,0,0,0,.45-.36A4.32,4.32,0,0,1,5.19,5.53v.6a.48.48,0,0,0,.27.42A.46.46,0,0,0,6,6.49L8.61,4.33A.48.48,0,0,0,8.78,4a.46.46,0,0,0-.17-.36L6,1.44a.44.44,0,0,0-.49-.06.48.48,0,0,0-.27.42v.64A5.27,5.27,0,0,0,.4,7.68,5.2,5.2,0,0,0,.53,8.86.47.47,0,0,0,1,9.22ZM5.66,3.35a.47.47,0,0,0,.47-.46V2.78L7.58,4,6.13,5.15V5a.47.47,0,0,0-.47-.47A5.27,5.27,0,0,0,1.45,6.66,4.34,4.34,0,0,1,5.66,3.35Z"/><path class="cls-1" d="M6.41,14.61a1.12,1.12,0,0,0,.67-1v0a1.06,1.06,0,0,0-.31-.78,1.37,1.37,0,0,0-.7-.35v-.72a.32.32,0,1,0-.64,0v.65h-.6v-.65a.32.32,0,1,0-.64,0v.65H3.83a.42.42,0,0,0-.42.42v3.89a.42.42,0,0,0,.42.42h.36v.6a.32.32,0,0,0,.64,0v-.6h.6v.6a.32.32,0,0,0,.64,0V17c.78-.12,1.28-.55,1.28-1.26h0A1.17,1.17,0,0,0,6.41,14.61Zm-.16-.93h0c0,.43-.35.64-.89.64H4.23V13.08H5.42C6,13.08,6.25,13.31,6.25,13.68Zm.27,2c0,.43-.35.65-.91.65H4.23V15H5.55c.65,0,1,.23,1,.63Z"/></g></g></svg>