<svg xmlns="http://www.w3.org/2000/svg" viewBox="0 0 218.99 65.79"><defs><style>.cls-1{fill:#010203;}.cls-2{fill:#a8b0bc;}</style></defs><title>Recurso 6</title><g id="Capa_2" data-name="Capa 2"><g id="Capa_1-2" data-name="Capa 1"><path class="cls-1" d="M38.07,56.77A19.38,19.38,0,0,1,30.93,60v5.84H20.51V60.91H15.1v4.88H4.68v-14H24.09c3.14,0,5.51-.61,7.12-1.81a6.28,6.28,0,0,0,2.42-5.36,6.43,6.43,0,0,0-2.19-5.3Q29.25,37.58,25,37.51H4.68V28.16H23.77q9.81.15,14.82,4.21t5,12.14Q43.6,52.64,38.07,56.77Z"/><rect class="cls-2" y="0.06" width="2.32" height="65.59"/><path class="cls-2" d="M55.21,19.29H68.36c3.23,0,5.78.89,7.4,2.5a6.54,6.54,0,0,1,1.94,4.82v.08A6.61,6.61,0,0,1,74,32.8c3.28,1.25,5.3,3.15,5.3,7v.08c0,5.18-4.21,7.77-10.6,7.77H55.21ZM67,30.73c2.75,0,4.49-.89,4.49-3v-.08c0-1.86-1.45-2.91-4.08-2.91H61.28v6Zm1.66,11.41c2.75,0,4.41-1,4.41-3.07V39c0-1.91-1.41-3.08-4.61-3.08h-7.2v6.23Z"/><path class="cls-2" d="M81.46,19.29h6.48v4.24H81.46Zm.17,6.63h6.14V47.6H81.63Z"/><path class="cls-2" d="M93,41.45V31.18H90.36V25.92H93V20.38H99.1v5.54h5.1v5.26H99.1v9.26c0,1.42.61,2.1,2,2.1a6.3,6.3,0,0,0,3-.76v4.93A9,9,0,0,1,99.26,48C95.5,48,93,46.47,93,41.45Z"/><path class="cls-2" d="M106.34,42.67l9.42-7.73c3.52-2.91,4.9-4.45,4.9-6.79a3.48,3.48,0,0,0-3.8-3.69c-2.19,0-3.69,1.22-5.79,3.81l-4.37-3.52c2.79-3.81,5.5-5.87,10.56-5.87,5.86,0,9.75,3.44,9.75,8.74v.08c0,4.73-2.43,7.08-7.44,11L115,42.22h12.34V47.6h-21Z"/><path class="cls-1" d="M129.71,33.51v-.08A13.92,13.92,0,0,1,144,19.26c5.17,0,8.27,1.72,10.81,4.22L151,27.91a10.08,10.08,0,0,0-7-3.09c-4.62,0-8,3.83-8,8.53v.08c0,4.7,3.25,8.61,8,8.61,3.13,0,5-1.25,7.2-3.21L155,42.71a14,14,0,0,1-11.24,4.89A13.83,13.83,0,0,1,129.71,33.51Z"/><path class="cls-1" d="M157.63,41.37v-.08c0-4.73,3.6-6.92,8.73-6.92a15.5,15.5,0,0,1,5.3.89V34.9c0-2.55-1.57-4-4.65-4a16,16,0,0,0-6,1.17l-1.53-4.69a19.12,19.12,0,0,1,8.41-1.74c3.36,0,5.78.89,7.32,2.42s2.35,4,2.35,6.92V47.6h-5.95V45.25A8.33,8.33,0,0,1,165.07,48C161,48,157.63,45.66,157.63,41.37ZM171.74,40v-1.1a9.58,9.58,0,0,0-3.92-.81c-2.63,0-4.25,1.06-4.25,3v.08c0,1.66,1.38,2.63,3.36,2.63C169.8,43.76,171.74,42.18,171.74,40Z"/><path class="cls-1" d="M179.55,44.73l2.63-4A12.23,12.23,0,0,0,189,43.27c1.78,0,2.59-.64,2.59-1.62v-.08c0-1.33-2.1-1.78-4.49-2.5-3-.89-6.47-2.31-6.47-6.52v-.08c0-4.41,3.56-6.87,7.93-6.87a15.07,15.07,0,0,1,8.09,2.5l-2.35,4.25a12.84,12.84,0,0,0-5.86-2c-1.5,0-2.27.65-2.27,1.5v.08c0,1.21,2.07,1.78,4.41,2.59,3,1,6.55,2.46,6.55,6.43V41c0,4.81-3.6,7-8.29,7A15.22,15.22,0,0,1,179.55,44.73Z"/><path class="cls-1" d="M199.13,19.29h6.15V29c1.41-1.82,3.23-3.47,6.35-3.47,4.65,0,7.36,3.07,7.36,8v14h-6.15V35.51c0-2.92-1.38-4.41-3.72-4.41s-3.84,1.49-3.84,4.41V47.6h-6.15Z"/><path class="cls-2" d="M38.59,32.37l.22.19Q43.6,28.45,43.6,20.9c0-.57,0-1.11-.06-1.64H33.46A9,9,0,0,1,33.63,21a6.28,6.28,0,0,1-2.42,5.36,11.24,11.24,0,0,1-6.37,1.79Q33.86,28.54,38.59,32.37Z"/><path class="cls-1" d="M31.21,15.65a5.69,5.69,0,0,1,2.25,3.61h10A13.88,13.88,0,0,0,38.07,8.89a19.38,19.38,0,0,0-7.14-3.18V0H20.51V4.75H15.1V0H4.68V13.84H24.09C27.23,13.84,29.6,14.45,31.21,15.65Z"/></g></g></svg>