<svg xmlns="http://www.w3.org/2000/svg" viewBox="0 0 140.41 85.57"><defs><style>.cls-1{fill:#fff;stroke:#d3d3d3;stroke-miterlimit:10;}.cls-2{fill:#452f91;}.cls-3{fill:#f1b71c;}</style></defs><title>Recurso 65</title><g id="Capa_2" data-name="Capa 2"><g id="Capa_1-2" data-name="Capa 1"><rect class="cls-1" x="0.5" y="0.5" width="139.41" height="84.57" rx="12" ry="12"/><path class="cls-2" d="M46.69,60.8a14.6,14.6,0,0,1-5.39,2.39V67.6H33.44V63.92H29.36V67.6H21.5V57.06H36.14a8.91,8.91,0,0,0,5.38-1.36,4.74,4.74,0,0,0,1.82-4,4.84,4.84,0,0,0-1.65-4,7.81,7.81,0,0,0-4.88-1.39H21.5V39.21H35.91q7.4.12,11.17,3.18t3.78,9.16Q50.86,57.67,46.69,60.8Z"/><rect class="cls-3" x="17.97" y="18.02" width="1.75" height="49.48"/><path class="cls-3" d="M47.08,42.39l.17.15q3.6-3.1,3.61-8.8c0-.43,0-.84,0-1.24h-7.6a7.08,7.08,0,0,1,.13,1.34,4.72,4.72,0,0,1-1.82,4,8.31,8.31,0,0,1-4.81,1.35Q43.51,39.5,47.08,42.39Z"/><path class="cls-2" d="M41.52,29.78a4.25,4.25,0,0,1,1.69,2.72h7.57a10.44,10.44,0,0,0-4.09-7.82,14.61,14.61,0,0,0-5.39-2.4V18H33.44v3.58H29.36V18H21.5V28.42H36.14A8.91,8.91,0,0,1,41.52,29.78Z"/><path class="cls-3" d="M53.4,56.31l13.37-11c5-4.13,6.94-6.31,6.94-9.64s-2.23-5.23-5.39-5.23-5.22,1.73-8.21,5.4l-6.2-5c4-5.4,7.81-8.33,15-8.33,8.33,0,13.84,4.88,13.84,12.4v.12c0,6.71-3.45,10-10.56,15.55l-6.55,5H83.13v7.64H53.4Z"/><path class="cls-2" d="M86.55,43.32v-.11A19.77,19.77,0,0,1,106.83,23.1c7.33,0,11.72,2.44,15.33,6l-5.44,6.28c-3-2.72-6.06-4.39-9.94-4.39-6.56,0-11.28,5.45-11.28,12.11v.12c0,6.66,4.61,12.22,11.28,12.22,4.44,0,7.16-1.78,10.22-4.56l5.44,5.5c-4,4.28-8.44,7-15.94,7A19.64,19.64,0,0,1,86.55,43.32Z"/></g></g></svg>