<svg xmlns="http://www.w3.org/2000/svg" viewBox="0 0 139.41 84.57"><defs><style>.cls-1{fill:#452f91;}.cls-2{fill:#fff;}.cls-3{fill:#f1b71c;}</style></defs><title>Recurso 66</title><g id="Capa_2" data-name="Capa 2"><g id="Capa_1-2" data-name="Capa 1"><rect class="cls-1" width="139.41" height="84.57" rx="12" ry="12"/><path class="cls-2" d="M46.19,60.3a14.6,14.6,0,0,1-5.39,2.39V67.1H32.94V63.42H28.86V67.1H21V56.56H35.64A8.91,8.91,0,0,0,41,55.2a4.74,4.74,0,0,0,1.82-4,4.84,4.84,0,0,0-1.65-4,7.81,7.81,0,0,0-4.88-1.39H21V38.71H35.41q7.4.12,11.17,3.18t3.78,9.16Q50.36,57.17,46.19,60.3Z"/><rect class="cls-3" x="17.47" y="17.52" width="1.75" height="49.48"/><path class="cls-3" d="M46.58,41.89l.17.15q3.6-3.1,3.61-8.8c0-.43,0-.84,0-1.24h-7.6a7.08,7.08,0,0,1,.13,1.34,4.72,4.72,0,0,1-1.82,4,8.31,8.31,0,0,1-4.81,1.35Q43,39,46.58,41.89Z"/><path class="cls-2" d="M41,29.28A4.25,4.25,0,0,1,42.71,32h7.57a10.44,10.44,0,0,0-4.09-7.82,14.61,14.61,0,0,0-5.39-2.4V17.47H32.94v3.58H28.86V17.47H21V27.92H35.64A8.91,8.91,0,0,1,41,29.28Z"/><path class="cls-3" d="M52.9,55.81l13.37-11c5-4.13,6.94-6.31,6.94-9.64S71,30,67.82,30s-5.22,1.73-8.21,5.4l-6.2-5c4-5.4,7.81-8.33,15-8.33,8.33,0,13.84,4.88,13.84,12.4v.12c0,6.71-3.45,10-10.56,15.55l-6.55,5H82.63v7.64H52.9Z"/><path class="cls-2" d="M86.05,42.82v-.11A19.77,19.77,0,0,1,106.33,22.6c7.33,0,11.72,2.44,15.33,6l-5.44,6.28c-3-2.72-6.06-4.39-9.94-4.39C99.72,30.48,95,35.93,95,42.59v.12c0,6.66,4.61,12.22,11.28,12.22,4.44,0,7.16-1.78,10.22-4.56l5.44,5.5c-4,4.28-8.44,7-15.94,7A19.64,19.64,0,0,1,86.05,42.82Z"/></g></g></svg>