<svg xmlns="http://www.w3.org/2000/svg" viewBox="0 0 94.47 94.47"><defs><style>.cls-1{fill:#fff;stroke:#d3d3d3;stroke-miterlimit:10;}.cls-2{fill:#231f20;}</style></defs><title>Recurso 75</title><g id="Capa_2" data-name="Capa 2"><g id="Capa_1-2" data-name="Capa 1"><rect class="cls-1" x="0.5" y="0.5" width="93.47" height="93.47" rx="12" ry="12"/><path class="cls-2" d="M60.89,67.28a16.1,16.1,0,0,1-6,2.66v4.91H46.15V70.76H41.61v4.09H32.86V63.12H49.15a9.93,9.93,0,0,0,6-1.52,5.26,5.26,0,0,0,2-4.5,5.38,5.38,0,0,0-1.83-4.44,8.69,8.69,0,0,0-5.43-1.55h-17V43.25h16q8.24.14,12.44,3.55T65.53,57Q65.53,63.81,60.89,67.28Z"/><rect class="cls-2" x="28.93" y="19.67" width="1.94" height="55.06"/><path class="cls-2" d="M63.52,37.78a10.45,10.45,0,0,1-2.21,6.54,16.8,16.8,0,0,0-4-1.83,7.35,7.35,0,0,0,1.83-4.71h4.37m2-2H57a8,8,0,0,1,.14,1.5,5.26,5.26,0,0,1-2,4.5,9.38,9.38,0,0,1-5.36,1.5q7.57.3,11.55,3.52l.18.16q4-3.45,4-9.8c0-.47,0-.93,0-1.38Z"/><path class="cls-2" d="M55.14,32.76a4.76,4.76,0,0,1,1.88,3h8.43a11.65,11.65,0,0,0-4.56-8.7,16.27,16.27,0,0,0-6-2.67V19.62H46.15v4H41.61v-4H32.86V31.24H49.15A9.93,9.93,0,0,1,55.14,32.76Z"/></g></g></svg>