<svg xmlns="http://www.w3.org/2000/svg" viewBox="0 0 94.47 94.47"><defs><style>.cls-1{fill:#fff;stroke:#d3d3d3;stroke-miterlimit:10;}.cls-2{fill:#452f91;}.cls-3{fill:#f1b71c;}</style></defs><title>Recurso 71</title><g id="Capa_2" data-name="Capa 2"><g id="Capa_1-2" data-name="Capa 1"><rect class="cls-1" x="0.5" y="0.5" width="93.47" height="93.47" rx="12" ry="12"/><path class="cls-2" d="M60.67,67a15.94,15.94,0,0,1-5.9,2.62V74.4h-8.6v-4H41.7v4H33.09V62.86h16A9.78,9.78,0,0,0,55,61.37a5.18,5.18,0,0,0,2-4.43,5.3,5.3,0,0,0-1.8-4.37,8.52,8.52,0,0,0-5.35-1.52H33.09V43.32H48.86c5.4.08,9.48,1.25,12.24,3.48s4.14,5.58,4.14,10S63.72,64.68,60.67,67Z"/><rect class="cls-3" x="29.23" y="20.11" width="1.91" height="54.17"/><path class="cls-3" d="M61.1,46.8l.18.16q4-3.39,4-9.64c0-.46,0-.91,0-1.35H56.86A7.56,7.56,0,0,1,57,37.44a5.18,5.18,0,0,1-2,4.43,9.2,9.2,0,0,1-5.27,1.47Q57.2,43.64,61.1,46.8Z"/><path class="cls-2" d="M55,33a4.65,4.65,0,0,1,1.85,3h8.3a11.51,11.51,0,0,0-4.49-8.57,15.94,15.94,0,0,0-5.9-2.62V20.06h-8.6V24H41.7V20.06H33.09V31.5h16A9.78,9.78,0,0,1,55,33Z"/></g></g></svg>