<svg xmlns="http://www.w3.org/2000/svg" viewBox="0 0 93.47 93.47"><defs><style>.cls-1{fill:#f1b71c;}.cls-2{fill:#452f91;}.cls-3{fill:#fff;}</style></defs><title>Recurso 73</title><g id="Capa_2" data-name="Capa 2"><g id="Capa_1-2" data-name="Capa 1"><rect class="cls-1" width="93.47" height="93.47" rx="12" ry="12"/><path class="cls-2" d="M60.39,66.78a16.1,16.1,0,0,1-6,2.66v4.91H45.65V70.26H41.11v4.09H32.36V62.62H48.65a9.93,9.93,0,0,0,6-1.52,5.26,5.26,0,0,0,2-4.5,5.38,5.38,0,0,0-1.83-4.44,8.69,8.69,0,0,0-5.43-1.55h-17V42.75h16q8.24.14,12.44,3.55T65,56.48Q65,63.31,60.39,66.78Z"/><rect class="cls-3" x="28.43" y="19.17" width="1.94" height="55.06"/><path class="cls-3" d="M60.83,46.3l.18.16q4-3.45,4-9.8c0-.47,0-.93,0-1.38H56.52a8,8,0,0,1,.14,1.5,5.26,5.26,0,0,1-2,4.5,9.38,9.38,0,0,1-5.36,1.5Q56.86,43.08,60.83,46.3Z"/><path class="cls-2" d="M54.64,32.26a4.76,4.76,0,0,1,1.88,3H65a11.65,11.65,0,0,0-4.56-8.7,16.27,16.27,0,0,0-6-2.67V19.12H45.65v4H41.11v-4H32.36V30.74H48.65A9.93,9.93,0,0,1,54.64,32.26Z"/></g></g></svg>