<svg xmlns="http://www.w3.org/2000/svg" viewBox="0 0 182.34 132.97"><defs><style>.cls-1{fill:#f1b71c;}.cls-2{fill:#f4f4f8;}.cls-3{fill:#452f91;}.cls-4{fill:#fff;}</style></defs><title>Recurso 61</title><g id="Capa_2" data-name="Capa 2"><g id="Capa_1-2" data-name="Capa 1"><rect class="cls-1" width="182.34" height="132.97" rx="12" ry="12"/><path class="cls-2" d="M19.81,87.75H31.27c2.82,0,5,.77,6.45,2.18a5.69,5.69,0,0,1,1.69,4.2v.07a5.75,5.75,0,0,1-3.24,5.32c2.85,1.09,4.61,2.75,4.61,6.06v.07c0,4.51-3.66,6.77-9.23,6.77H19.81Zm10.29,10c2.4,0,3.92-.77,3.92-2.61V95c0-1.62-1.27-2.54-3.56-2.54H25.1v5.22Zm1.45,9.94c2.4,0,3.84-.84,3.84-2.68v-.07c0-1.65-1.23-2.68-4-2.68H25.1v5.43Z"/><path class="cls-2" d="M42.69,87.75h5.64v3.7H42.69Zm.14,5.78h5.35v18.89H42.83Z"/><path class="cls-2" d="M52.7,107.06v-9H50.44V93.53H52.7V88.7h5.35v4.83h4.44v4.58H58.05v8.07c0,1.23.53,1.83,1.73,1.83a5.34,5.34,0,0,0,2.64-.67v4.3a7.87,7.87,0,0,1-4.23,1.1C54.92,112.74,52.7,111.43,52.7,107.06Z"/><path class="cls-2" d="M64.36,108.12l8.22-6.73c3.06-2.54,4.26-3.88,4.26-5.92a3,3,0,0,0-3.31-3.21c-1.91,0-3.21,1.06-5,3.31L64.68,92.5c2.43-3.31,4.79-5.11,9.2-5.11,5.11,0,8.49,3,8.49,7.62v.07c0,4.12-2.11,6.17-6.48,9.55l-4,3.1H82.62v4.69H64.36Z"/><path class="cls-3" d="M84.72,100.14v-.07A12.14,12.14,0,0,1,97.18,87.72a12.29,12.29,0,0,1,9.41,3.69l-3.34,3.85a8.81,8.81,0,0,0-6.11-2.69c-4,0-6.92,3.34-6.92,7.43v.07c0,4.09,2.83,7.51,6.92,7.51,2.73,0,4.4-1.1,6.28-2.8l3.34,3.38A12.21,12.21,0,0,1,97,112.42,12.05,12.05,0,0,1,84.72,100.14Z"/><path class="cls-3" d="M109.06,107v-.07c0-4.12,3.13-6,7.61-6a13.41,13.41,0,0,1,4.62.78v-.32c0-2.22-1.38-3.45-4.06-3.45a13.94,13.94,0,0,0-5.21,1l-1.34-4.09A16.61,16.61,0,0,1,118,93.32c2.92,0,5,.77,6.38,2.11a8.24,8.24,0,0,1,2,6v11h-5.18v-2a7.27,7.27,0,0,1-5.71,2.39C112,112.77,109.06,110.73,109.06,107Zm12.3-1.23v-1a8.23,8.23,0,0,0-3.42-.71c-2.29,0-3.7.92-3.7,2.61v.07c0,1.45,1.2,2.29,2.92,2.29C119.67,109.07,121.36,107.7,121.36,105.76Z"/><path class="cls-3" d="M128.16,109.92l2.29-3.53a10.67,10.67,0,0,0,6,2.26c1.55,0,2.25-.57,2.25-1.41v-.07c0-1.17-1.83-1.55-3.91-2.19-2.64-.77-5.64-2-5.64-5.67v-.07c0-3.84,3.1-6,6.91-6a13.12,13.12,0,0,1,7,2.18l-2,3.7a11.16,11.16,0,0,0-5.11-1.76c-1.3,0-2,.56-2,1.3v.07c0,1.06,1.8,1.55,3.84,2.26,2.65.88,5.71,2.15,5.71,5.6v.07c0,4.2-3.14,6.1-7.22,6.1A13.24,13.24,0,0,1,128.16,109.92Z"/><path class="cls-3" d="M145.22,87.75h5.36v8.46a6.67,6.67,0,0,1,5.53-3c4,0,6.42,2.68,6.42,7v12.23h-5.36V101.88c0-2.54-1.2-3.84-3.24-3.84s-3.35,1.3-3.35,3.84v10.54h-5.36Z"/><path class="cls-3" d="M105.35,69.67a17,17,0,0,1-6.23,2.76v5.09H90V73.28H85.33v4.24H76.25V65.35H93.16q4.11,0,6.21-1.58a5.45,5.45,0,0,0,2.1-4.66,5.59,5.59,0,0,0-1.9-4.62,9,9,0,0,0-5.64-1.61H76.25V44.73H92.89q8.55.14,12.91,3.67T110.16,59Q110.16,66.06,105.35,69.67Z"/><rect class="cls-4" x="72.17" y="20.24" width="2.02" height="57.15"/><path class="cls-4" d="M105.8,48.4l.19.17c2.78-2.39,4.17-5.77,4.17-10.17,0-.49,0-1,0-1.43h-8.78a8.54,8.54,0,0,1,.14,1.56,5.47,5.47,0,0,1-2.1,4.67,9.71,9.71,0,0,1-5.55,1.56Q101.68,45.06,105.8,48.4Z"/><path class="cls-3" d="M99.37,33.83a4.92,4.92,0,0,1,2,3.14h8.75a12.08,12.08,0,0,0-4.73-9,16.84,16.84,0,0,0-6.23-2.77v-5H90v4.14H85.33V20.19H76.25V32.26H93.16Q97.27,32.26,99.37,33.83Z"/></g></g></svg>