<svg xmlns="http://www.w3.org/2000/svg" viewBox="0 0 183.34 133.97"><defs><style>.cls-1{fill:#fff;stroke:#d3d3d3;stroke-miterlimit:10;}.cls-2{fill:#231f20;}</style></defs><title>Recurso 63</title><g id="Capa_2" data-name="Capa 2"><g id="Capa_1-2" data-name="Capa 1"><rect class="cls-1" x="0.5" y="0.5" width="182.34" height="132.97" rx="12" ry="12"/><path class="cls-2" d="M20.31,88.25H31.77c2.82,0,5,.77,6.45,2.18a5.69,5.69,0,0,1,1.69,4.2v.07A5.75,5.75,0,0,1,36.67,100c2.85,1.09,4.61,2.75,4.61,6.06v.07c0,4.51-3.66,6.77-9.23,6.77H20.31Zm10.29,10c2.4,0,3.92-.77,3.92-2.61v-.07C34.52,93.92,33.25,93,31,93H25.6v5.22Zm1.45,9.94c2.4,0,3.84-.84,3.84-2.68v-.07c0-1.65-1.23-2.68-4-2.68H25.6v5.43Z"/><path class="cls-2" d="M43.19,88.25h5.64V92H43.19ZM43.33,94h5.35v18.89H43.33Z"/><path class="cls-2" d="M53.2,107.56v-9H50.94V94H53.2V89.2h5.35V94H63v4.58H58.55v8.07c0,1.23.53,1.83,1.73,1.83a5.34,5.34,0,0,0,2.64-.67v4.3a7.87,7.87,0,0,1-4.23,1.1C55.42,113.24,53.2,111.93,53.2,107.56Z"/><path class="cls-2" d="M64.86,108.62l8.22-6.73C76.14,99.35,77.34,98,77.34,96A3,3,0,0,0,74,92.76c-1.91,0-3.21,1.06-5,3.31L65.18,93c2.43-3.31,4.79-5.11,9.2-5.11,5.11,0,8.49,3,8.49,7.62v.07c0,4.12-2.11,6.17-6.48,9.55l-4,3.1H83.12v4.69H64.86Z"/><path class="cls-2" d="M85.22,100.64v-.07A12.14,12.14,0,0,1,97.68,88.22a12.29,12.29,0,0,1,9.41,3.69l-3.34,3.85a8.81,8.81,0,0,0-6.11-2.69c-4,0-6.92,3.34-6.92,7.43v.07c0,4.09,2.83,7.51,6.92,7.51,2.73,0,4.4-1.1,6.28-2.8l3.34,3.38a12.21,12.21,0,0,1-9.79,4.26A12.05,12.05,0,0,1,85.22,100.64Z"/><path class="cls-2" d="M109.56,107.49v-.07c0-4.12,3.13-6,7.61-6a13.41,13.41,0,0,1,4.62.78v-.32c0-2.22-1.38-3.45-4.06-3.45a13.94,13.94,0,0,0-5.21,1l-1.34-4.09a16.61,16.61,0,0,1,7.33-1.51c2.92,0,5,.77,6.38,2.11a8.24,8.24,0,0,1,2,6v11h-5.18v-2a7.27,7.27,0,0,1-5.71,2.39C112.48,113.27,109.56,111.23,109.56,107.49Zm12.3-1.23v-1a8.23,8.23,0,0,0-3.42-.71c-2.29,0-3.7.92-3.7,2.61v.07c0,1.45,1.2,2.29,2.92,2.29C120.17,109.57,121.86,108.2,121.86,106.26Z"/><path class="cls-2" d="M128.66,110.42l2.29-3.53a10.67,10.67,0,0,0,6,2.26c1.55,0,2.25-.57,2.25-1.41v-.07c0-1.17-1.83-1.55-3.91-2.19-2.64-.77-5.64-2-5.64-5.67v-.07c0-3.84,3.1-6,6.91-6a13.12,13.12,0,0,1,7,2.18l-2,3.7a11.16,11.16,0,0,0-5.11-1.76c-1.3,0-2,.56-2,1.3v.07c0,1.06,1.8,1.55,3.84,2.26,2.65.88,5.71,2.15,5.71,5.6v.07c0,4.2-3.14,6.1-7.22,6.1A13.24,13.24,0,0,1,128.66,110.42Z"/><path class="cls-2" d="M145.72,88.25h5.36v8.46a6.67,6.67,0,0,1,5.53-3c4,0,6.42,2.68,6.42,7v12.23h-5.36V102.38c0-2.54-1.2-3.84-3.24-3.84s-3.35,1.3-3.35,3.84v10.54h-5.36Z"/><path class="cls-2" d="M105.85,70.17a17,17,0,0,1-6.23,2.76V78H90.54V73.78H85.83V78H76.75V65.85H93.66q4.11,0,6.21-1.58a5.45,5.45,0,0,0,2.1-4.66,5.59,5.59,0,0,0-1.9-4.62,9,9,0,0,0-5.64-1.61H76.75V45.23H93.39q8.55.14,12.91,3.67t4.36,10.58Q110.66,66.56,105.85,70.17Z"/><rect class="cls-2" x="72.67" y="20.74" width="2.02" height="57.15"/><path class="cls-2" d="M108.65,39.48a11,11,0,0,1-2.36,7,17.26,17.26,0,0,0-4.29-2,7.52,7.52,0,0,0,2-5h4.68m2-2h-8.78A8.35,8.35,0,0,1,102,39a5.47,5.47,0,0,1-2.1,4.67,9.71,9.71,0,0,1-5.55,1.56q7.86.3,12,3.64l.19.17c2.78-2.39,4.17-5.77,4.17-10.17,0-.49,0-1,0-1.42Z"/><path class="cls-2" d="M99.87,34.33a4.92,4.92,0,0,1,2,3.14h8.75a12.08,12.08,0,0,0-4.73-9,16.84,16.84,0,0,0-6.23-2.77v-5H90.54v4.14H85.83V20.69H76.75V32.76H93.66Q97.77,32.76,99.87,34.33Z"/></g></g></svg>