<svg xmlns="http://www.w3.org/2000/svg" viewBox="0 0 182.34 132.97"><defs><style>.cls-1{fill:#452f91;}.cls-2{fill:#f1b71c;}.cls-3{fill:#fff;}</style></defs><title>Recurso 60</title><g id="Capa_2" data-name="Capa 2"><g id="Capa_1-2" data-name="Capa 1"><rect class="cls-1" width="182.34" height="132.97" rx="12" ry="12"/><path class="cls-2" d="M19.45,87.67H30.91c2.82,0,5,.77,6.45,2.17A5.64,5.64,0,0,1,39.05,94v.07a5.7,5.7,0,0,1-3.24,5.3c2.85,1.09,4.62,2.74,4.62,6v.07c0,4.5-3.67,6.74-9.24,6.74H19.45Zm10.3,9.93c2.39,0,3.91-.77,3.91-2.6v-.07c0-1.61-1.27-2.52-3.56-2.52H24.74V97.6Zm1.44,9.9c2.4,0,3.84-.84,3.84-2.66v-.07c0-1.65-1.23-2.67-4-2.67H24.74v5.4Z"/><path class="cls-2" d="M43,87.67h5.64v3.68H43Zm.14,5.75h5.36v18.82H43.18Z"/><path class="cls-2" d="M53.05,106.91V98H50.8V93.42h2.25V88.61h5.36v4.81h4.44V98H58.41v8c0,1.23.53,1.83,1.73,1.83a5.47,5.47,0,0,0,2.64-.67v4.28a7.9,7.9,0,0,1-4.23,1.09C55.27,112.56,53.05,111.26,53.05,106.91Z"/><path class="cls-2" d="M64.72,108l8.21-6.71c3.07-2.52,4.27-3.86,4.27-5.89a3,3,0,0,0-3.32-3.2c-1.9,0-3.2,1-5,3.3l-3.8-3c2.43-3.3,4.79-5.1,9.2-5.1,5.11,0,8.49,3,8.49,7.59V95c0,4.11-2.11,6.14-6.48,9.51l-4,3.09H83v4.67H64.72Z"/><path class="cls-3" d="M85.08,100v-.07a12.12,12.12,0,0,1,12.45-12.3A12.37,12.37,0,0,1,107,91.31l-3.34,3.84a8.86,8.86,0,0,0-6.11-2.68c-4,0-6.93,3.33-6.93,7.4v.07c0,4.08,2.84,7.48,6.93,7.48,2.73,0,4.4-1.09,6.28-2.79l3.34,3.37a12.25,12.25,0,0,1-9.79,4.24A12,12,0,0,1,85.08,100Z"/><path class="cls-3" d="M109.41,106.84v-.07c0-4.11,3.14-6,7.62-6a13.35,13.35,0,0,1,4.61.78v-.32c0-2.21-1.37-3.44-4-3.44a13.83,13.83,0,0,0-5.22,1L111,94.72a16.78,16.78,0,0,1,7.33-1.51c2.93,0,5,.78,6.38,2.11a8.2,8.2,0,0,1,2.05,6v10.92h-5.18v-2a7.28,7.28,0,0,1-5.71,2.39C112.34,112.6,109.41,110.56,109.41,106.84Zm12.3-1.23v-1a8.32,8.32,0,0,0-3.42-.7c-2.29,0-3.7.91-3.7,2.6v.07c0,1.44,1.2,2.28,2.93,2.28C120,108.91,121.71,107.54,121.71,105.61Z"/><path class="cls-3" d="M128.52,109.75l2.29-3.51a10.65,10.65,0,0,0,5.95,2.25c1.55,0,2.26-.56,2.26-1.41V107c0-1.16-1.83-1.54-3.91-2.17-2.65-.78-5.64-2-5.64-5.66v-.07c0-3.82,3.1-6,6.91-6a13.14,13.14,0,0,1,7.05,2.18L141.38,99a11.24,11.24,0,0,0-5.11-1.76c-1.3,0-2,.56-2,1.3v.07c0,1,1.79,1.55,3.84,2.25,2.64.88,5.71,2.14,5.71,5.58v.07c0,4.18-3.14,6.08-7.23,6.08A13.23,13.23,0,0,1,128.52,109.75Z"/><path class="cls-3" d="M145.58,87.67h5.35v8.42a6.7,6.7,0,0,1,5.54-3c4.05,0,6.41,2.67,6.41,7v12.18h-5.36V101.75c0-2.53-1.19-3.83-3.24-3.83s-3.35,1.3-3.35,3.83v10.49h-5.35Z"/><path class="cls-3" d="M105.7,69.66a16.94,16.94,0,0,1-6.22,2.75v5.07H90.4V73.25H85.69v4.23H76.61V65.35H93.52q4.11,0,6.21-1.57a5.42,5.42,0,0,0,2.1-4.65,5.57,5.57,0,0,0-1.9-4.6,9,9,0,0,0-5.64-1.59H76.61V44.81H93.25q8.53.13,12.91,3.66T110.52,59Q110.52,66.06,105.7,69.66Z"/><rect class="cls-2" x="72.53" y="20.42" width="2.02" height="56.94"/><path class="cls-2" d="M106.16,48.47l.19.17q4.17-3.57,4.17-10.13c0-.49,0-1,0-1.42h-8.78a8.35,8.35,0,0,1,.14,1.55,5.42,5.42,0,0,1-2.1,4.64,9.67,9.67,0,0,1-5.56,1.56Q102,45.14,106.16,48.47Z"/><path class="cls-3" d="M99.73,34a4.91,4.91,0,0,1,2,3.13h8.74a12.06,12.06,0,0,0-4.73-9,16.94,16.94,0,0,0-6.22-2.75v-5H90.4v4.12H85.69V20.37H76.61v12H93.52Q97.63,32.39,99.73,34Z"/></g></g></svg>