<svg xmlns="http://www.w3.org/2000/svg" viewBox="0 0 142.71 92.58"><defs><style>.cls-1{fill:#a8b0bc;}.cls-2{fill:#010203;}</style></defs><title>Recurso 12</title><g id="Capa_2" data-name="Capa 2"><g id="Capa_1-2" data-name="Capa 1"><path class="cls-1" d="M0,67.55H11.46a8.91,8.91,0,0,1,6.45,2.19,5.68,5.68,0,0,1,1.69,4.19V74a5.74,5.74,0,0,1-3.25,5.33C19.21,80.42,21,82.07,21,85.39v.07c0,4.51-3.66,6.77-9.23,6.77H0Zm10.29,10c2.4,0,3.91-.78,3.91-2.61v-.07c0-1.62-1.26-2.54-3.56-2.54H5.29v5.22Zm1.45,9.94c2.39,0,3.84-.85,3.84-2.68v-.07c0-1.66-1.23-2.68-4-2.68H5.29v5.43Z"/><path class="cls-1" d="M22.87,67.55h5.64v3.7H22.87ZM23,73.33h5.35v18.9H23Z"/><path class="cls-1" d="M32.88,86.87v-9H30.63V73.33h2.25V68.5h5.36v4.83h4.44v4.59H38.24V86c0,1.23.53,1.83,1.73,1.83a5.44,5.44,0,0,0,2.64-.67v4.3a7.87,7.87,0,0,1-4.23,1.09C35.11,92.54,32.88,91.24,32.88,86.87Z"/><path class="cls-1" d="M44.55,87.93l8.21-6.74C55.83,78.66,57,77.32,57,75.27a3,3,0,0,0-3.31-3.21c-1.91,0-3.21,1.06-5,3.32l-3.81-3.07c2.43-3.31,4.79-5.11,9.2-5.11,5.11,0,8.49,3,8.49,7.61v.07c0,4.13-2.11,6.17-6.48,9.56l-4,3.1H62.81v4.69H44.55Z"/><path class="cls-2" d="M64.91,79.94v-.06A12.14,12.14,0,0,1,77.37,67.53a12.33,12.33,0,0,1,9.41,3.68l-3.34,3.86a8.78,8.78,0,0,0-6.11-2.7c-4,0-6.92,3.34-6.92,7.44v.07c0,4.09,2.83,7.5,6.92,7.5,2.73,0,4.4-1.09,6.28-2.8L87,88a12.18,12.18,0,0,1-9.79,4.27A12.06,12.06,0,0,1,64.91,79.94Z"/><path class="cls-2" d="M89.24,86.8v-.07c0-4.13,3.14-6,7.62-6a13.41,13.41,0,0,1,4.62.78v-.32c0-2.22-1.38-3.46-4.06-3.46a13.75,13.75,0,0,0-5.21,1l-1.34-4.09a16.6,16.6,0,0,1,7.33-1.52c2.92,0,5,.78,6.38,2.12a8.23,8.23,0,0,1,2,6v11h-5.18v-2a7.24,7.24,0,0,1-5.71,2.4C92.17,92.58,89.24,90.53,89.24,86.8Zm12.31-1.24v-1a8.39,8.39,0,0,0-3.42-.7c-2.29,0-3.7.91-3.7,2.61v.07c0,1.44,1.19,2.29,2.92,2.29C99.85,88.88,101.55,87.5,101.55,85.56Z"/><path class="cls-2" d="M108.35,89.72l2.29-3.52a10.65,10.65,0,0,0,6,2.25c1.55,0,2.25-.56,2.25-1.41V87c0-1.16-1.83-1.55-3.91-2.18-2.64-.78-5.64-2-5.64-5.68V79c0-3.84,3.1-6,6.91-6a13.07,13.07,0,0,1,7.05,2.19l-2.05,3.7a11.08,11.08,0,0,0-5.11-1.77c-1.3,0-2,.57-2,1.31v.07c0,1.06,1.8,1.55,3.84,2.26,2.64.88,5.71,2.15,5.71,5.6v.07c0,4.19-3.14,6.1-7.23,6.1A13.19,13.19,0,0,1,108.35,89.72Z"/><path class="cls-2" d="M125.41,67.56h5.36V76a6.69,6.69,0,0,1,5.53-3c4,0,6.41,2.68,6.41,7V92.23h-5.35V81.69c0-2.54-1.2-3.85-3.25-3.85s-3.34,1.31-3.34,3.85V92.23h-5.36Z"/><path class="cls-2" d="M85.54,49.47a16.84,16.84,0,0,1-6.23,2.77v5.09H70.23V53.08H65.52v4.25H56.44V45.15H73.35q4.11,0,6.21-1.57a5.47,5.47,0,0,0,2.1-4.67,5.59,5.59,0,0,0-1.9-4.62,9,9,0,0,0-5.64-1.6H56.44V24.53H73.08q8.55.15,12.91,3.68t4.36,10.57Q90.35,45.88,85.54,49.47Z"/><rect class="cls-1" x="52.36" y="0.05" width="2.02" height="57.15"/><path class="cls-1" d="M86,28.21l.19.17q4.17-3.59,4.17-10.17c0-.49,0-1,0-1.43H81.52a8.46,8.46,0,0,1,.14,1.56A5.45,5.45,0,0,1,79.56,23,9.66,9.66,0,0,1,74,24.56Q81.85,24.86,86,28.21Z"/><path class="cls-2" d="M79.56,13.64a4.92,4.92,0,0,1,2,3.14h8.75a12.13,12.13,0,0,0-4.73-9A17,17,0,0,0,79.31,5V0H70.23V4.14H65.52V0H56.44V12.06H73.35Q77.46,12.06,79.56,13.64Z"/></g></g></svg>