<svg xmlns="http://www.w3.org/2000/svg" viewBox="0 0 143.43 92.23"><defs><style>.cls-1{fill:#f1b71c;}.cls-2{fill:#fff;}</style></defs><title>Recurso 10</title><g id="Capa_2" data-name="Capa 2"><g id="Capa_1-2" data-name="Capa 1"><path class="cls-1" d="M0,67.3H11.46c2.82,0,5,.77,6.45,2.17a5.68,5.68,0,0,1,1.69,4.18v.07A5.71,5.71,0,0,1,16.35,79c2.86,1.09,4.62,2.74,4.62,6v.07c0,4.5-3.66,6.74-9.23,6.74H0Zm10.29,9.93c2.4,0,3.91-.77,3.91-2.6v-.07C14.2,73,12.94,72,10.64,72H5.29v5.19Zm1.45,9.9c2.39,0,3.84-.84,3.84-2.66V84.4c0-1.66-1.23-2.67-4-2.67H5.29v5.4Z"/><path class="cls-1" d="M23.59,67.3h5.64V71H23.59Zm.14,5.75h5.36V91.87H23.73Z"/><path class="cls-1" d="M33.6,86.54V77.62H31.34V73.05H33.6V68.24H39v4.81H43.4v4.57H39v8c0,1.23.52,1.83,1.72,1.83a5.51,5.51,0,0,0,2.65-.67V91.1a7.92,7.92,0,0,1-4.23,1.09C35.82,92.19,33.6,90.89,33.6,86.54Z"/><path class="cls-1" d="M45.26,87.59l8.22-6.71C56.54,78.36,57.74,77,57.74,75a3,3,0,0,0-3.31-3.2c-1.9,0-3.21,1-5,3.3l-3.81-3c2.43-3.31,4.8-5.1,9.2-5.1,5.11,0,8.5,3,8.5,7.59v.07c0,4.11-2.12,6.14-6.49,9.51l-4,3.09H63.52v4.67H45.26Z"/><path class="cls-2" d="M65.63,79.64v-.07a12.11,12.11,0,0,1,12.45-12.3,12.31,12.31,0,0,1,9.41,3.67l-3.34,3.84A8.8,8.8,0,0,0,78,72.1c-4,0-6.92,3.33-6.92,7.4v.07c0,4.08,2.83,7.48,6.92,7.48,2.73,0,4.4-1.09,6.28-2.79l3.34,3.37a12.23,12.23,0,0,1-9.79,4.24A12,12,0,0,1,65.63,79.64Z"/><path class="cls-2" d="M90,86.47V86.4c0-4.11,3.13-6,7.61-6a13.67,13.67,0,0,1,4.62.77v-.31c0-2.21-1.38-3.44-4.06-3.44a13.78,13.78,0,0,0-5.21,1l-1.34-4.08a16.75,16.75,0,0,1,7.33-1.51c2.93,0,5,.78,6.38,2.11a8.18,8.18,0,0,1,2,6V91.87h-5.18v-2a7.27,7.27,0,0,1-5.71,2.39C92.88,92.23,90,90.19,90,86.47Zm12.3-1.23v-.95a8.39,8.39,0,0,0-3.42-.7c-2.29,0-3.7.91-3.7,2.6v.07c0,1.44,1.2,2.28,2.92,2.28C100.57,88.54,102.26,87.17,102.26,85.24Z"/><path class="cls-2" d="M109.06,89.38l2.29-3.51a10.78,10.78,0,0,0,6,2.25c1.55,0,2.25-.56,2.25-1.41v-.07c0-1.16-1.83-1.54-3.91-2.17-2.64-.78-5.64-2-5.64-5.66v-.07c0-3.83,3.1-6,6.91-6A13.09,13.09,0,0,1,124,75l-2,3.69a11.24,11.24,0,0,0-5.11-1.76c-1.31,0-2,.56-2,1.3v.07c0,1,1.8,1.55,3.84,2.25,2.65.88,5.71,2.14,5.71,5.58v.07c0,4.18-3.13,6.08-7.22,6.08A13.24,13.24,0,0,1,109.06,89.38Z"/><path class="cls-2" d="M126.12,67.3h5.36v8.42a6.68,6.68,0,0,1,5.53-3c4.06,0,6.42,2.67,6.42,7V91.87h-5.36V81.38c0-2.53-1.2-3.83-3.24-3.83s-3.35,1.3-3.35,3.83V91.87h-5.36Z"/><path class="cls-2" d="M86.25,49.28A16.76,16.76,0,0,1,80,52v5.07H70.94V52.88H66.23v4.23H57.15V45H74.06q4.11,0,6.21-1.57a5.4,5.4,0,0,0,2.11-4.65,5.57,5.57,0,0,0-1.91-4.6,9.11,9.11,0,0,0-5.64-1.6H57.15V24.44H73.79q8.55.14,12.91,3.66t4.36,10.54Q91.06,45.69,86.25,49.28Z"/><rect class="cls-1" x="53.08" y="0.05" width="2.02" height="56.94"/><path class="cls-1" d="M86.7,28.1l.19.17q4.17-3.57,4.17-10.13c0-.49,0-1,0-1.42H82.23a7.55,7.55,0,0,1,.15,1.55,5.4,5.4,0,0,1-2.11,4.64,9.71,9.71,0,0,1-5.55,1.56Q82.58,24.77,86.7,28.1Z"/><path class="cls-2" d="M80.27,13.59a4.87,4.87,0,0,1,2,3.13H91a12,12,0,0,0-4.73-9A16.91,16.91,0,0,0,80,5V0H70.94V4.12H66.23V0H57.15V12H74.06Q78.17,12,80.27,13.59Z"/></g></g></svg>