<svg xmlns="http://www.w3.org/2000/svg" viewBox="0 0 266.55 113.11"><defs><style>.cls-1{fill:#fff;stroke:#d3d3d3;stroke-miterlimit:10;}.cls-2{fill:#452f91;}.cls-3{fill:#f1b71c;}</style></defs><title>Recurso 53</title><g id="Capa_2" data-name="Capa 2"><g id="Capa_1-2" data-name="Capa 1"><rect class="cls-1" x="0.5" y="0.5" width="265.55" height="112.11" rx="12" ry="12"/><path class="cls-2" d="M62,80.43a19.43,19.43,0,0,1-7.15,3.18v5.84H44.4V84.57H39v4.88H28.57v-14H48c3.14,0,5.52-.61,7.13-1.81a6.27,6.27,0,0,0,2.41-5.36A6.42,6.42,0,0,0,55.34,63c-1.46-1.19-3.62-1.8-6.47-1.85H28.57V51.82h19.1Q57.48,52,62.48,56t5,12.14Q67.49,76.3,62,80.43Z"/><rect class="cls-3" x="23.9" y="23.72" width="2.32" height="65.59"/><path class="cls-3" d="M79.11,43H92.26c3.23,0,5.78.89,7.4,2.5a6.54,6.54,0,0,1,1.94,4.82v.08a6.61,6.61,0,0,1-3.72,6.11c3.27,1.25,5.3,3.15,5.3,6.95v.08c0,5.18-4.21,7.77-10.6,7.77H79.11ZM90.92,54.39c2.75,0,4.49-.89,4.49-3v-.08c0-1.86-1.46-2.91-4.08-2.91H85.18v6ZM92.58,65.8c2.75,0,4.41-1,4.41-3.07v-.08c0-1.91-1.42-3.08-4.61-3.08h-7.2V65.8Z"/><path class="cls-3" d="M105.36,43h6.47v4.24h-6.47Zm.16,6.63h6.15V71.26h-6.15Z"/><path class="cls-3" d="M116.85,65.11V54.84h-2.59V49.58h2.59V44H123v5.54h5.09v5.26H123V64.1c0,1.42.6,2.11,2,2.11a6.31,6.31,0,0,0,3-.77v4.93a9,9,0,0,1-4.85,1.25C119.4,71.62,116.85,70.13,116.85,65.11Z"/><path class="cls-3" d="M130.24,66.33l9.42-7.73c3.52-2.91,4.89-4.45,4.89-6.79a3.47,3.47,0,0,0-3.8-3.69c-2.18,0-3.68,1.22-5.78,3.81l-4.37-3.52c2.79-3.8,5.5-5.87,10.56-5.87,5.86,0,9.74,3.44,9.74,8.74v.08c0,4.73-2.42,7.08-7.44,11l-4.61,3.56h12.34v5.38H130.24Z"/><path class="cls-2" d="M153.6,57.17v-.08a13.93,13.93,0,0,1,14.29-14.17c5.17,0,8.26,1.72,10.81,4.23l-3.84,4.42a10.1,10.1,0,0,0-7-3.09c-4.62,0-7.94,3.83-7.94,8.53v.08c0,4.7,3.24,8.61,7.94,8.61,3.13,0,5.05-1.25,7.21-3.21l3.83,3.88a14,14,0,0,1-11.23,4.89A13.83,13.83,0,0,1,153.6,57.17Z"/><path class="cls-2" d="M181.52,65V65c0-4.73,3.6-6.92,8.74-6.92a15.59,15.59,0,0,1,5.3.89v-.36c0-2.55-1.58-4-4.65-4a15.9,15.9,0,0,0-6,1.17l-1.54-4.69a19.2,19.2,0,0,1,8.42-1.74c3.35,0,5.78.89,7.32,2.43s2.34,4,2.34,6.91V71.26h-5.94V68.92A8.37,8.37,0,0,1,189,71.67C184.88,71.67,181.52,69.32,181.52,65Zm14.12-1.41v-1.1a9.62,9.62,0,0,0-3.92-.8c-2.63,0-4.25,1.05-4.25,3v.08c0,1.66,1.37,2.63,3.36,2.63C193.7,67.42,195.64,65.84,195.64,63.62Z"/><path class="cls-2" d="M203.45,68.39l2.63-4a12.23,12.23,0,0,0,6.83,2.59c1.78,0,2.59-.64,2.59-1.62v-.08c0-1.33-2.1-1.78-4.49-2.5-3-.89-6.47-2.31-6.47-6.52v-.08c0-4.41,3.56-6.87,7.93-6.87a15,15,0,0,1,8.09,2.51L218.21,56a12.88,12.88,0,0,0-5.86-2c-1.5,0-2.27.65-2.27,1.5v.08c0,1.21,2.06,1.78,4.41,2.59,3,1,6.55,2.46,6.55,6.43v.08c0,4.81-3.6,7-8.29,7A15.22,15.22,0,0,1,203.45,68.39Z"/><path class="cls-2" d="M223,43h6.15v9.7c1.42-1.82,3.24-3.47,6.35-3.47,4.65,0,7.36,3.07,7.36,8v14h-6.14V59.17c0-2.92-1.38-4.41-3.73-4.41s-3.84,1.49-3.84,4.41V71.26H223Z"/><path class="cls-3" d="M62.48,56l.23.19q4.77-4.11,4.78-11.66c0-.57,0-1.11-.06-1.64H57.36a9.9,9.9,0,0,1,.16,1.78,6.27,6.27,0,0,1-2.41,5.36,11.2,11.2,0,0,1-6.38,1.79Q57.75,52.19,62.48,56Z"/><path class="cls-2" d="M55.11,39.31a5.69,5.69,0,0,1,2.25,3.61h10A13.87,13.87,0,0,0,62,32.55a19.43,19.43,0,0,0-7.15-3.18V23.66H44.4v4.75H39V23.66H28.57V37.5H48C51.12,37.5,53.5,38.11,55.11,39.31Z"/></g></g></svg>