<svg xmlns="http://www.w3.org/2000/svg" viewBox="0 0 266.55 113.11"><defs><style>.cls-1{fill:#fff;stroke:#d3d3d3;stroke-miterlimit:10;}.cls-2{fill:#231f20;}</style></defs><title>Recurso 57</title><g id="Capa_2" data-name="Capa 2"><g id="Capa_1-2" data-name="Capa 1"><rect class="cls-1" x="0.5" y="0.5" width="265.55" height="112.11" rx="12" ry="12"/><path class="cls-2" d="M61.85,80.43a19.38,19.38,0,0,1-7.14,3.18v5.84H44.29V84.57H38.88v4.88H28.46v-14H47.87c3.14,0,5.51-.61,7.12-1.81a6.27,6.27,0,0,0,2.41-5.36A6.39,6.39,0,0,0,55.22,63c-1.46-1.19-3.62-1.8-6.47-1.85H28.46V51.82H47.55Q57.36,52,62.37,56t5,12.14Q67.37,76.3,61.85,80.43Z"/><rect class="cls-2" x="23.78" y="23.72" width="2.32" height="65.59"/><path class="cls-2" d="M79,43H92.14c3.23,0,5.78.89,7.4,2.5a6.54,6.54,0,0,1,1.94,4.82v.08a6.61,6.61,0,0,1-3.72,6.11c3.28,1.25,5.3,3.15,5.3,6.95v.08c0,5.18-4.21,7.77-10.6,7.77H79ZM90.8,54.39c2.75,0,4.49-.89,4.49-3v-.08c0-1.86-1.45-2.91-4.08-2.91H85.06v6ZM92.46,65.8c2.75,0,4.41-1,4.41-3.07v-.08c0-1.91-1.42-3.08-4.61-3.08h-7.2V65.8Z"/><path class="cls-2" d="M105.24,43h6.47v4.24h-6.47Zm.16,6.63h6.15V71.26H105.4Z"/><path class="cls-2" d="M116.73,65.11V54.84h-2.59V49.58h2.59V44h6.15v5.54H128v5.26h-5.09V64.1c0,1.42.6,2.11,2,2.11a6.31,6.31,0,0,0,3-.77v4.93A9,9,0,0,1,123,71.62C119.28,71.62,116.73,70.13,116.73,65.11Z"/><path class="cls-2" d="M130.12,66.33l9.42-7.73c3.52-2.91,4.9-4.45,4.9-6.79a3.48,3.48,0,0,0-3.81-3.69c-2.18,0-3.68,1.22-5.78,3.81l-4.37-3.52c2.79-3.8,5.5-5.87,10.56-5.87,5.86,0,9.75,3.44,9.75,8.74v.08c0,4.73-2.43,7.08-7.45,11l-4.61,3.56h12.34v5.38H130.12Z"/><path class="cls-2" d="M153.48,57.17v-.08a13.93,13.93,0,0,1,14.29-14.17c5.17,0,8.26,1.72,10.81,4.23l-3.84,4.42a10.08,10.08,0,0,0-7-3.09c-4.61,0-7.94,3.83-7.94,8.53v.08c0,4.7,3.25,8.61,7.94,8.61,3.14,0,5.06-1.25,7.21-3.21l3.83,3.88a14,14,0,0,1-11.23,4.89A13.83,13.83,0,0,1,153.48,57.17Z"/><path class="cls-2" d="M181.41,65V65c0-4.73,3.6-6.92,8.73-6.92a15.54,15.54,0,0,1,5.3.89v-.36c0-2.55-1.58-4-4.65-4a15.94,15.94,0,0,0-6,1.17l-1.53-4.69a19.12,19.12,0,0,1,8.41-1.74c3.36,0,5.78.89,7.32,2.43s2.35,4,2.35,6.91V71.26H195.4V68.92a8.37,8.37,0,0,1-6.55,2.75C184.76,71.67,181.41,69.32,181.41,65Zm14.11-1.41v-1.1a9.59,9.59,0,0,0-3.92-.8c-2.63,0-4.25,1.05-4.25,3v.08c0,1.66,1.38,2.63,3.36,2.63C193.58,67.42,195.52,65.84,195.52,63.62Z"/><path class="cls-2" d="M203.33,68.39l2.63-4a12.23,12.23,0,0,0,6.83,2.59c1.78,0,2.59-.64,2.59-1.62v-.08c0-1.33-2.1-1.78-4.49-2.5-3-.89-6.47-2.31-6.47-6.52v-.08c0-4.41,3.56-6.87,7.93-6.87a15,15,0,0,1,8.09,2.51L218.09,56a12.84,12.84,0,0,0-5.86-2c-1.5,0-2.27.65-2.27,1.5v.08c0,1.21,2.07,1.78,4.41,2.59,3,1,6.55,2.46,6.55,6.43v.08c0,4.81-3.6,7-8.29,7A15.22,15.22,0,0,1,203.33,68.39Z"/><path class="cls-2" d="M222.91,43h6.14v9.7c1.42-1.82,3.24-3.47,6.36-3.47,4.65,0,7.36,3.07,7.36,8v14h-6.15V59.17c0-2.92-1.38-4.41-3.72-4.41s-3.85,1.49-3.85,4.41V71.26h-6.14Z"/><path class="cls-2" d="M65.37,44.92a12.94,12.94,0,0,1-3,8.67,20.26,20.26,0,0,0-5.54-2.51,8.38,8.38,0,0,0,2.52-6.16h6m1.95-2H57.24a9.06,9.06,0,0,1,.16,1.78A6.27,6.27,0,0,1,55,50.06a11.19,11.19,0,0,1-6.37,1.79q9,.34,13.75,4.18l.22.2c3.19-2.75,4.78-6.63,4.78-11.67,0-.57,0-1.11-.05-1.64Z"/><path class="cls-2" d="M55,39.31a5.69,5.69,0,0,1,2.25,3.61h10a13.91,13.91,0,0,0-5.43-10.37,19.38,19.38,0,0,0-7.14-3.18V23.66H44.29v4.75H38.88V23.66H28.46V37.5H47.87C51,37.5,53.38,38.11,55,39.31Z"/></g></g></svg>