<svg xmlns="http://www.w3.org/2000/svg" viewBox="0 0 265.55 112.11"><defs><style>.cls-1{fill:#231f20;}.cls-2{fill:#fff;}</style></defs><title>Recurso 58</title><g id="Capa_2" data-name="Capa 2"><g id="Capa_1-2" data-name="Capa 1"><rect class="cls-1" width="265.55" height="112.11" rx="12" ry="12"/><path class="cls-2" d="M61.35,79.93a19.38,19.38,0,0,1-7.14,3.18V89H43.79V84.07H38.38V89H28V75H47.37c3.14,0,5.51-.61,7.12-1.81a6.27,6.27,0,0,0,2.41-5.36,6.39,6.39,0,0,0-2.18-5.29c-1.46-1.19-3.62-1.8-6.47-1.85H28V51.32H47.05q9.81.15,14.82,4.21t5,12.14Q66.87,75.8,61.35,79.93Z"/><rect class="cls-2" x="23.28" y="23.22" width="2.32" height="65.59"/><path class="cls-2" d="M78.49,42.45H91.64c3.23,0,5.78.89,7.4,2.5A6.54,6.54,0,0,1,101,49.77v.08A6.61,6.61,0,0,1,97.26,56c3.28,1.25,5.3,3.15,5.3,6.95V63c0,5.18-4.21,7.77-10.6,7.77H78.49ZM90.3,53.89c2.75,0,4.49-.89,4.49-3v-.08c0-1.86-1.45-2.91-4.08-2.91H84.56v6ZM92,65.3c2.75,0,4.41-1,4.41-3.07v-.08c0-1.91-1.42-3.08-4.61-3.08h-7.2V65.3Z"/><path class="cls-2" d="M104.74,42.45h6.47v4.24h-6.47Zm.16,6.63h6.15V70.76H104.9Z"/><path class="cls-2" d="M116.23,64.61V54.34h-2.59V49.08h2.59V43.54h6.15v5.54h5.09v5.26h-5.09V63.6c0,1.42.6,2.11,2,2.11a6.31,6.31,0,0,0,3-.77v4.93a9,9,0,0,1-4.85,1.25C118.78,71.12,116.23,69.63,116.23,64.61Z"/><path class="cls-2" d="M129.62,65.83,139,58.1c3.52-2.91,4.9-4.45,4.9-6.79a3.48,3.48,0,0,0-3.81-3.69c-2.18,0-3.68,1.22-5.78,3.81L130,47.91c2.79-3.8,5.5-5.87,10.56-5.87,5.86,0,9.75,3.44,9.75,8.74v.08c0,4.73-2.43,7.08-7.45,11l-4.61,3.56h12.34v5.38H129.62Z"/><path class="cls-2" d="M153,56.67v-.08a13.93,13.93,0,0,1,14.29-14.17c5.17,0,8.26,1.72,10.81,4.23l-3.84,4.42a10.08,10.08,0,0,0-7-3.09c-4.61,0-7.94,3.83-7.94,8.53v.08c0,4.7,3.25,8.61,7.94,8.61,3.14,0,5.06-1.25,7.21-3.21l3.83,3.88A14,14,0,0,1,167,70.76,13.83,13.83,0,0,1,153,56.67Z"/><path class="cls-2" d="M180.91,64.53v-.08c0-4.73,3.6-6.92,8.73-6.92a15.54,15.54,0,0,1,5.3.89v-.36c0-2.55-1.58-4-4.65-4a15.94,15.94,0,0,0-6,1.17l-1.53-4.69a19.12,19.12,0,0,1,8.41-1.74c3.36,0,5.78.89,7.32,2.43s2.35,4,2.35,6.91V70.76H194.9V68.42a8.37,8.37,0,0,1-6.55,2.75C184.26,71.17,180.91,68.82,180.91,64.53ZM195,63.12V62a9.59,9.59,0,0,0-3.92-.8c-2.63,0-4.25,1.05-4.25,3v.08c0,1.66,1.38,2.63,3.36,2.63C193.08,66.92,195,65.34,195,63.12Z"/><path class="cls-2" d="M202.83,67.89l2.63-4a12.23,12.23,0,0,0,6.83,2.59c1.78,0,2.59-.64,2.59-1.62v-.08c0-1.33-2.1-1.78-4.49-2.5-3-.89-6.47-2.31-6.47-6.52v-.08c0-4.41,3.56-6.87,7.93-6.87a15,15,0,0,1,8.09,2.51l-2.35,4.24a12.84,12.84,0,0,0-5.86-2c-1.5,0-2.27.65-2.27,1.5v.08c0,1.21,2.07,1.78,4.41,2.59,3,1,6.55,2.46,6.55,6.43v.08c0,4.81-3.6,7-8.29,7A15.22,15.22,0,0,1,202.83,67.89Z"/><path class="cls-2" d="M222.41,42.45h6.14v9.7c1.42-1.82,3.24-3.47,6.36-3.47,4.65,0,7.36,3.07,7.36,8v14h-6.15V58.67c0-2.92-1.38-4.41-3.72-4.41s-3.85,1.49-3.85,4.41V70.76h-6.14Z"/><path class="cls-2" d="M64.87,44.42a12.94,12.94,0,0,1-3,8.67,20.26,20.26,0,0,0-5.54-2.51,8.38,8.38,0,0,0,2.52-6.16h6m1.95-2H56.74a9.06,9.06,0,0,1,.16,1.78,6.27,6.27,0,0,1-2.41,5.36,11.19,11.19,0,0,1-6.37,1.79q9,.34,13.75,4.18l.22.19q4.78-4.11,4.78-11.66c0-.57,0-1.11-.05-1.64Z"/><path class="cls-2" d="M54.49,38.81a5.69,5.69,0,0,1,2.25,3.61h10a13.91,13.91,0,0,0-5.43-10.37,19.38,19.38,0,0,0-7.14-3.18V23.16H43.79v4.75H38.38V23.16H28V37H47.37C50.51,37,52.88,37.61,54.49,38.81Z"/></g></g></svg>