<svg xmlns="http://www.w3.org/2000/svg" xmlns:xlink="http://www.w3.org/1999/xlink" viewBox="0 0 1919.97 2038.04"><defs><style>.cls-1{fill:none;}.cls-2{fill:url(#Degradado_sin_nombre_5);}.cls-3{clip-path:url(#clip-path);}.cls-4{opacity:0.4;}.cls-5{fill:#452f90;}</style><linearGradient id="Degradado_sin_nombre_5" x1="1164.88" y1="517.49" x2="-39.22" y2="1171.83" gradientUnits="userSpaceOnUse"><stop offset="0" stop-color="#211c56"/><stop offset="1" stop-color="#452f90"/></linearGradient><clipPath id="clip-path" transform="translate(-0.47)"><rect class="cls-1" y="86.89" width="1917.6" height="1080.11"/></clipPath></defs><title>Recurso 1</title><g id="Capa_2" data-name="Capa 2"><g id="Capa_1-2" data-name="Capa 1"><rect class="cls-2" x="2.37" y="89.37" width="1917.6" height="1077.63"/><g class="cls-3"><g class="cls-4"><path class="cls-5" d="M1179.77,1758.73q-88.68,66.43-221.27,98.37V2038H635.72V1887H468.13v151H145.35V1605.16H746.63q146,0,220.73-56t74.75-165.9q0-109.2-67.73-164.13T774,1162.08H145.35V872.19H736.9q303.81,4.81,458.94,130.67T1351,1378.78Q1351,1630.48,1179.77,1758.73Z" transform="translate(-0.47)"/><rect class="cls-5" y="1.77" width="71.75" height="2031.76"/><path class="cls-5" d="M1195.83,1002.86c2.37,1.91,4.56,4,6.87,5.92Q1350.89,881.46,1351,647.33c0-17.42-.7-34.28-1.83-50.79h-312.2a287,287,0,0,1,5.17,55.27q0,109.91-74.75,165.9c-45.74,34.27-111.75,52.61-197.5,55.42Q1049.21,884,1195.83,1002.86Z" transform="translate(-0.47)"/><path class="cls-5" d="M967.36,484.86c37.48,28.08,60.38,64.31,69.59,111.68h311c-12.46-138.17-68.32-246.44-168.17-321.26q-88.66-66.43-221.27-98.36V0H635.72V147H468.13V0H145.35V428.85H746.63Q892.6,428.85,967.36,484.86Z" transform="translate(-0.47)"/></g></g></g></g></svg>