<svg xmlns="http://www.w3.org/2000/svg" viewBox="0 0 104.47 49.63"><defs><style>.cls-1{fill:#452f91;}.cls-2{fill:#fff;}</style></defs><title>Recurso 17</title><g id="Capa_2" data-name="Capa 2"><g id="Capa_1-2" data-name="Capa 1"><path class="cls-1" d="M28.72,42.83a14.6,14.6,0,0,1-5.39,2.39v4.41H15.47V46H11.39v3.68H3.53V39.09H18.17a8.91,8.91,0,0,0,5.38-1.37,4.73,4.73,0,0,0,1.82-4,4.83,4.83,0,0,0-1.65-4,7.81,7.81,0,0,0-4.88-1.39H3.53V21.24h14.4q7.41.12,11.18,3.18t3.78,9.16Q32.89,39.7,28.72,42.83Z"/><rect class="cls-2" y="0.04" width="1.75" height="49.48"/><path class="cls-2" d="M29.11,24.42l.17.15q3.6-3.11,3.61-8.81c0-.42,0-.83,0-1.23h-7.6a7,7,0,0,1,.13,1.34,4.73,4.73,0,0,1-1.82,4,8.41,8.41,0,0,1-4.81,1.35Q25.54,21.53,29.11,24.42Z"/><path class="cls-1" d="M23.55,11.81a4.23,4.23,0,0,1,1.69,2.72h7.57A10.48,10.48,0,0,0,28.72,6.7a14.6,14.6,0,0,0-5.39-2.39V0H15.47V3.58H11.39V0H3.53V10.44H18.17A8.91,8.91,0,0,1,23.55,11.81Z"/><path class="cls-2" d="M35.42,38.34l13.38-11c5-4.13,6.94-6.32,6.94-9.64s-2.24-5.23-5.39-5.23-5.23,1.72-8.21,5.4l-6.2-5c4-5.39,7.81-8.32,15-8.32,8.32,0,13.83,4.88,13.83,12.4v.11c0,6.72-3.44,10-10.56,15.56l-6.54,5.05H65.16v7.63H35.42Z"/><path class="cls-1" d="M68.58,25.34v-.11A19.77,19.77,0,0,1,88.86,5.12c7.33,0,11.72,2.45,15.33,6L98.75,17.4c-3-2.72-6.06-4.39-10-4.39-6.55,0-11.27,5.45-11.27,12.11v.11c0,6.67,4.61,12.23,11.27,12.23,4.45,0,7.17-1.78,10.23-4.56l5.44,5.5c-4,4.28-8.44,6.94-15.94,6.94A19.63,19.63,0,0,1,68.58,25.34Z"/></g></g></svg>