<svg xmlns="http://www.w3.org/2000/svg" xmlns:xlink="http://www.w3.org/1999/xlink" viewBox="0 0 31.34 31.34"><defs><style>.cls-1{fill:url(#Degradado_sin_nombre_5);}.cls-2{fill:#f1b71c;}</style><linearGradient id="Degradado_sin_nombre_5" x1="7.97" y1="31.37" x2="19.66" y2="7.55" gradientUnits="userSpaceOnUse"><stop offset="0" stop-color="#211d57"/><stop offset="1" stop-color="#452f91"/></linearGradient></defs><title>Recurso 78</title><g id="Capa_2" data-name="Capa 2"><g id="Capa_1-2" data-name="Capa 1"><circle class="cls-1" cx="15.67" cy="15.67" r="15.67"/><path class="cls-2" d="M13.77,22.81a.34.34,0,0,0,0,.67h4.42a.34.34,0,0,0,0-.67Z"/><path class="cls-2" d="M18.9,15.41a.68.68,0,0,0-.16-.55,1.14,1.14,0,0,0-.11-.11,2.34,2.34,0,0,0,.09-.59h0a2.45,2.45,0,0,0-.86-1.81.32.32,0,0,0-.13-.26,2.56,2.56,0,0,0-1.53-.51H16a2.34,2.34,0,0,0-1.24.45.38.38,0,0,0-.29.06,2.74,2.74,0,0,0-1,2.07,2.33,2.33,0,0,0,.08.59l-.11.11a.68.68,0,0,0-.16.55l.12.71a.63.63,0,0,0,.51.51c0,.07,0,.17.08.3a1.86,1.86,0,0,0,.92,1.15l.31.16a1.85,1.85,0,0,0,.88.22,1.79,1.79,0,0,0,.87-.22l.31-.16a1.82,1.82,0,0,0,.92-1.15c0-.13.06-.23.08-.3a.62.62,0,0,0,.51-.51Zm-4.28-2.57a.34.34,0,0,0,.22-.07A2.2,2.2,0,0,1,16,12.25h.23a2,2,0,0,1,1,.28.29.29,0,0,0,.13.24,1.8,1.8,0,0,1,.72,1.39c0,.05,0,.09,0,.13L17.88,14a.34.34,0,0,0-.37-.14,1.61,1.61,0,0,1-1.35-.2l-.44-.3a.32.32,0,0,0-.41,0l-.13.11a.6.6,0,0,1-.57.15.33.33,0,0,0-.39.18l-.09.19A2.18,2.18,0,0,1,14.62,12.84ZM18.13,16H18a.33.33,0,0,0-.32.27s0,.09-.14.52a1.16,1.16,0,0,1-.59.73l-.31.16a1.19,1.19,0,0,1-1.13,0l-.31-.16a1.19,1.19,0,0,1-.59-.73c-.11-.43-.13-.51-.13-.52a.34.34,0,0,0-.33-.27H14l-.1-.62.11,0a.35.35,0,0,0,.3-.2l.37-.78a1.27,1.27,0,0,0,.85-.29l.22.15a2.27,2.27,0,0,0,1.66.35l.4.61a.34.34,0,0,0,.38.14Z"/><path class="cls-2" d="M19.44,21.74a1.39,1.39,0,0,1-.28-.46H11.59a.33.33,0,0,0,0,.66h8Z"/><path class="cls-2" d="M25.15,23.23l-1.33-1.55V10h0a.28.28,0,0,0,0-.09h0s0,0,0-.06v0l0-.05v0l-.06-.06L19.81,5.82a.18.18,0,0,0-.07-.05h0l-.06,0h0l-.07,0h-11a.47.47,0,0,0-.47.47v19a.47.47,0,0,0,.47.47H22.86a1.42,1.42,0,0,1-.25-.24l-.61-.7H9.08V6.62H19V10a.47.47,0,0,0,.47.46h3.41V20.6L22,19.55a1.23,1.23,0,0,0-.88-.44,1.29,1.29,0,0,0-.74.17l-.67-.79a5,5,0,0,0,.18-6.75A5,5,0,0,0,16.44,10a5,5,0,1,0-.37,10A4.94,4.94,0,0,0,19,19.1l.68.79a1.28,1.28,0,0,0,0,1.64l3.17,3.68a1.29,1.29,0,0,0,.88.44h.09a1.3,1.3,0,0,0,.84-.31L25,25h0A1.27,1.27,0,0,0,25.15,23.23ZM19.94,9.56V7.28l2.29,2.28Zm-7,8.12a4.08,4.08,0,0,1,3.09-6.75h.3A4.08,4.08,0,1,1,13,17.68Zm11.43,6.65-.35.3a.35.35,0,0,1-.49,0l-3.18-3.68a.36.36,0,0,1,0-.5l.35-.3A.36.36,0,0,1,21,20h0a.35.35,0,0,1,.24.12l3.18,3.68A.35.35,0,0,1,24.41,24.33Z"/></g></g></svg>