<svg xmlns="http://www.w3.org/2000/svg" xmlns:xlink="http://www.w3.org/1999/xlink" viewBox="0 0 31.34 31.34"><defs><style>.cls-1{fill:url(#Degradado_sin_nombre_5);}.cls-2{fill:#f1b71c;}</style><linearGradient id="Degradado_sin_nombre_5" x1="7.97" y1="31.37" x2="19.66" y2="7.55" gradientUnits="userSpaceOnUse"><stop offset="0" stop-color="#211d57"/><stop offset="1" stop-color="#452f91"/></linearGradient></defs><title>Recurso 86</title><g id="Capa_2" data-name="Capa 2"><g id="Capa_1-2" data-name="Capa 1"><circle class="cls-1" cx="15.67" cy="15.67" r="15.67"/><path class="cls-2" d="M25.55,17.72a2.93,2.93,0,0,0-2.46-2.89V10.21h1.47A.47.47,0,0,0,25,9.74V8.12A2.72,2.72,0,0,0,22.31,5.4H10.21A2.72,2.72,0,0,0,7.49,8.12V24.91a.47.47,0,0,0,.47.46H22.63a.47.47,0,0,0,.46-.46V23.59l-.46-.35-.47.35v.85H8.42V8.12a1.79,1.79,0,0,1,3.58,0V9.74a.46.46,0,0,0,.46.47h9.7v4.62a2.92,2.92,0,0,0-1.25,5.25v3.1a.46.46,0,0,0,.74.38l1-.74,1,.74a.47.47,0,0,0,.28.09.54.54,0,0,0,.21,0,.47.47,0,0,0,.26-.42v-3.1A2.91,2.91,0,0,0,25.55,17.72Zm-1.46-9.6V9.28H12.93V8.12a2.77,2.77,0,0,0-.67-1.79h10A1.79,1.79,0,0,1,24.09,8.12Zm-.68,14.13-.5-.38a.47.47,0,0,0-.57,0l-.5.38V20.53a2.86,2.86,0,0,0,1.57,0v1.72Zm-.78-2.54a2,2,0,1,1,2-2A2,2,0,0,1,22.63,19.71Z"/><path class="cls-2" d="M17,22.92a1,1,0,0,0,.64.27,1,1,0,0,0,.24,0,1.47,1.47,0,0,0,.82-.55.32.32,0,0,0-.09-.46.33.33,0,0,0-.46.09.83.83,0,0,1-.44.27.26.26,0,0,1-.25-.07.31.31,0,0,1-.09-.29.7.7,0,0,0-.31-.84c-.49-.27-1.37.05-2.06.74-.38.37-.65.45-.75.4s-.2-.22-.19-.76c0-1.52-.53-1.88-1-1.91-1-.08-2.31,1.73-2.48,2.86a.33.33,0,0,0,.29.38.32.32,0,0,0,.37-.28c.15-1,1.26-2.34,1.77-2.3.17,0,.37.35.37,1.24s.3,1.27.59,1.39.94,0,1.48-.55a1.74,1.74,0,0,1,1.26-.63.24.24,0,0,1,0,.11A1,1,0,0,0,17,22.92Z"/><path class="cls-2" d="M10.14,12.3H20.36a.34.34,0,0,0,0-.67H10.14a.34.34,0,1,0,0,.67Z"/><path class="cls-2" d="M20.69,13.85a.33.33,0,0,0-.33-.33H10.14a.34.34,0,1,0,0,.67H20.36A.34.34,0,0,0,20.69,13.85Z"/><path class="cls-2" d="M19.09,15.74a.34.34,0,0,0-.33-.34H10.14a.34.34,0,1,0,0,.67h8.62A.33.33,0,0,0,19.09,15.74Z"/><path class="cls-2" d="M18,17.62a.34.34,0,0,0-.34-.33H10.14a.34.34,0,1,0,0,.67h7.55A.34.34,0,0,0,18,17.62Z"/></g></g></svg>