<svg xmlns="http://www.w3.org/2000/svg" xmlns:xlink="http://www.w3.org/1999/xlink" viewBox="0 0 31.34 31.34"><defs><style>.cls-1{fill:url(#Degradado_sin_nombre_5);}.cls-2{fill:#f1b71c;}</style><linearGradient id="Degradado_sin_nombre_5" x1="7.97" y1="31.37" x2="19.66" y2="7.55" gradientUnits="userSpaceOnUse"><stop offset="0" stop-color="#211d57"/><stop offset="1" stop-color="#452f91"/></linearGradient></defs><title>Recurso 102</title><g id="Capa_2" data-name="Capa 2"><g id="Capa_1-2" data-name="Capa 1"><circle class="cls-1" cx="15.67" cy="15.67" r="15.67"/><path class="cls-2" d="M13.08,8.44h.7a.34.34,0,0,0,0-.67h-.7a.34.34,0,0,0,0,.67Z"/><path class="cls-2" d="M14.8,8.44h2.27a.34.34,0,1,0,0-.67H14.8a.34.34,0,1,0,0,.67Z"/><path class="cls-2" d="M14.81,13.47a.34.34,0,0,0-.34-.34H7.94a.34.34,0,0,0-.34.34v1.58a.34.34,0,0,0,.34.34h6.53a.34.34,0,0,0,.34-.34Zm-.67,1.25H8.27V13.8h5.87Z"/><path class="cls-2" d="M7.94,18H9.35a.33.33,0,0,0,.33-.34V16.2a.33.33,0,0,0-.33-.33H7.94a.34.34,0,0,0-.34.33v1.41A.34.34,0,0,0,7.94,18Zm.33-1.42H9v.75H8.27Z"/><path class="cls-2" d="M10.52,18h1.41a.34.34,0,0,0,.34-.34V16.2a.34.34,0,0,0-.34-.33H10.52a.33.33,0,0,0-.33.33v1.41A.34.34,0,0,0,10.52,18Zm.33-1.42h.75v.75h-.75Z"/><path class="cls-2" d="M14.81,16.2a.34.34,0,0,0-.34-.33H13.06a.33.33,0,0,0-.33.33v1.41a.34.34,0,0,0,.33.34h1.41a.34.34,0,0,0,.34-.34Zm-.67,1.08h-.75v-.75h.75Z"/><path class="cls-2" d="M7.6,20a.34.34,0,0,0,.34.33H9.35A.33.33,0,0,0,9.68,20V18.57a.33.33,0,0,0-.33-.34H7.94a.34.34,0,0,0-.34.34Zm.67-1.08H9v.75H8.27Z"/><path class="cls-2" d="M10.19,20a.33.33,0,0,0,.33.33h1.41a.34.34,0,0,0,.34-.33V18.57a.34.34,0,0,0-.34-.34H10.52a.34.34,0,0,0-.33.34Zm.66-1.08h.75v.75h-.75Z"/><path class="cls-2" d="M8,22.68H9.39a.34.34,0,0,0,.34-.34V20.93a.34.34,0,0,0-.34-.33H8a.33.33,0,0,0-.33.33v1.41A.34.34,0,0,0,8,22.68Zm.33-1.42h.75V22H8.31Z"/><path class="cls-2" d="M10.56,22.68H12a.34.34,0,0,0,.34-.34V20.93A.34.34,0,0,0,12,20.6H10.56a.33.33,0,0,0-.33.33v1.41A.34.34,0,0,0,10.56,22.68Zm.33-1.42h.75V22h-.75Z"/><path class="cls-2" d="M14.47,18.23H13.06a.34.34,0,0,0-.33.34v3.77a.34.34,0,0,0,.33.34h1.41a.34.34,0,0,0,.34-.34V18.57A.34.34,0,0,0,14.47,18.23ZM14.14,22h-.75V18.9h.75Z"/><path class="cls-2" d="M22.16,19v-.45a.33.33,0,0,0-.66,0V19a1.05,1.05,0,0,0-.75,1,1,1,0,0,0,.5.88l.79.49a.38.38,0,0,1,.18.32v.06a.38.38,0,0,1-.38.38h-.05a.38.38,0,0,1-.37-.38v0a.34.34,0,0,0-.67,0v0a1,1,0,0,0,.76,1v.54a.34.34,0,0,0,.67,0v-.55a1,1,0,0,0,.71-1v-.06a1.07,1.07,0,0,0-.5-.89l-.79-.48a.38.38,0,0,1-.18-.32.38.38,0,0,1,.37-.38h.05a.38.38,0,0,1,.38.38v.17a.34.34,0,0,0,.67,0V20A1,1,0,0,0,22.16,19Z"/><path class="cls-2" d="M19.82,13.26h.7a.34.34,0,0,0,0-.67h-.7a.34.34,0,0,0,0,.67Z"/><path class="cls-2" d="M23.81,12.59H21.54a.34.34,0,1,0,0,.67h2.27a.34.34,0,1,0,0-.67Z"/><path class="cls-2" d="M19.82,14.87h.7a.33.33,0,1,0,0-.66h-.7a.33.33,0,1,0,0,.66Z"/><path class="cls-2" d="M23.81,14.21H21.54a.33.33,0,1,0,0,.66h2.27a.33.33,0,1,0,0-.66Z"/><path class="cls-2" d="M20.85,16.16a.33.33,0,0,0-.33-.33h-.7a.33.33,0,0,0-.33.33.33.33,0,0,0,.33.33h.7A.33.33,0,0,0,20.85,16.16Z"/><path class="cls-2" d="M23.81,15.83H21.54a.33.33,0,0,0-.34.33.34.34,0,0,0,.34.33h2.27a.34.34,0,0,0,.34-.33A.33.33,0,0,0,23.81,15.83Z"/><path class="cls-2" d="M22.94,9.5h-4V6.29a.47.47,0,0,0-.47-.47H11.71a.47.47,0,0,0-.47.47V10.7a2,2,0,0,0,1.91,2h2.69V23.46a.18.18,0,0,1-.18.19H6.81a.18.18,0,0,1-.19-.19V12.29a.18.18,0,0,1,.19-.18h4.58a2.25,2.25,0,0,1-.43-.94H6.81a1.12,1.12,0,0,0-1.12,1.12V23.46a1.13,1.13,0,0,0,1.12,1.13h8.85a1.13,1.13,0,0,0,1.12-1.13V12.68h.87v-.46a1.45,1.45,0,0,0-.08-.47h-3.1v0a1.79,1.79,0,0,1,3.5.5V25.05a.47.47,0,0,0,.47.47h6.74a.47.47,0,0,0,.47-.47V12.22A2.72,2.72,0,0,0,22.94,9.5Zm-5,0H16.2a2.72,2.72,0,0,0-2.61,2,.39.39,0,0,1-.37.29,1,1,0,0,1-1-1.05V6.75H18V9.5Zm6.74,15.09h-5.8V12.22a2.71,2.71,0,0,0-.47-1.52,1.78,1.78,0,0,0-.21-.27h4.7a1.79,1.79,0,0,1,1.78,1.79Z"/></g></g></svg>