<svg xmlns="http://www.w3.org/2000/svg" xmlns:xlink="http://www.w3.org/1999/xlink" viewBox="0 0 31.34 31.34"><defs><style>.cls-1{fill:url(#Degradado_sin_nombre_5);}.cls-2{fill:#f1b71c;}</style><linearGradient id="Degradado_sin_nombre_5" x1="7.97" y1="31.37" x2="19.66" y2="7.55" gradientUnits="userSpaceOnUse"><stop offset="0" stop-color="#211d57"/><stop offset="1" stop-color="#452f91"/></linearGradient></defs><title>Recurso 110</title><g id="Capa_2" data-name="Capa 2"><g id="Capa_1-2" data-name="Capa 1"><circle class="cls-1" cx="15.67" cy="15.67" r="15.67"/><path class="cls-2" d="M10.64,14.86a5.27,5.27,0,1,0,5.26,5.27A5.27,5.27,0,0,0,10.64,14.86Zm0,9.6A4.34,4.34,0,1,1,15,20.13,4.34,4.34,0,0,1,10.64,24.46Z"/><path class="cls-2" d="M25.4,10.65a5.27,5.27,0,1,0-5.26,5.27A5.27,5.27,0,0,0,25.4,10.65Zm-9.6,0A4.34,4.34,0,1,1,20.14,15,4.35,4.35,0,0,1,15.8,10.65Z"/><path class="cls-2" d="M20.49,13.7v-.8a1.27,1.27,0,0,0,.93-1.22V11.6a1.28,1.28,0,0,0-.6-1.08l-1-.64a.6.6,0,0,1,.31-1.11h.07a.59.59,0,0,1,.59.6V9.6a.34.34,0,0,0,.67,0V9.37a1.25,1.25,0,0,0-1-1.22V7.48a.34.34,0,0,0-.67,0v.66a1.27,1.27,0,0,0-1,1.23,1.29,1.29,0,0,0,.61,1.08l1,.64a.59.59,0,0,1,.28.5v.09a.59.59,0,0,1-.59.6h-.07a.6.6,0,0,1-.6-.6v0a.34.34,0,0,0-.67,0v0a1.28,1.28,0,0,0,1,1.24v.78a.34.34,0,1,0,.67,0Z"/><path class="cls-2" d="M24.42,16.17a.47.47,0,0,0-.46.36,4.31,4.31,0,0,1-3.75,3.33v-.6a.47.47,0,0,0-.26-.42.5.5,0,0,0-.5.06L16.8,21.07a.45.45,0,0,0,0,.72L19.45,24a.48.48,0,0,0,.3.11.53.53,0,0,0,.2,0,.46.46,0,0,0,.26-.42V23a5.28,5.28,0,0,0,4.66-6.42A.47.47,0,0,0,24.42,16.17ZM19.75,22a.47.47,0,0,0-.47.47v.1l-1.45-1.18,1.45-1.18v.1a.47.47,0,0,0,.47.47A5.23,5.23,0,0,0,24,18.73,4.33,4.33,0,0,1,19.75,22Z"/><path class="cls-2" d="M6.36,14.6a.46.46,0,0,0,.45-.36,4.32,4.32,0,0,1,3.75-3.33v.6a.48.48,0,0,0,.27.42.46.46,0,0,0,.49-.06L14,9.71a.48.48,0,0,0,.17-.37A.46.46,0,0,0,14,9L11.32,6.82a.46.46,0,0,0-.49-.06.48.48,0,0,0-.27.42v.64a5.27,5.27,0,0,0-4.79,5.24,5.76,5.76,0,0,0,.13,1.18A.47.47,0,0,0,6.36,14.6ZM11,8.73a.46.46,0,0,0,.47-.46V8.16L13,9.34,11.5,10.53v-.11A.46.46,0,0,0,11,10,5.26,5.26,0,0,0,6.82,12,4.34,4.34,0,0,1,11,8.73Z"/><path class="cls-2" d="M11.78,20a1.11,1.11,0,0,0,.67-1v0a1.06,1.06,0,0,0-.31-.78,1.45,1.45,0,0,0-.7-.35v-.72a.32.32,0,0,0-.64,0v.65h-.6v-.65a.32.32,0,0,0-.64,0v.65H9.2a.42.42,0,0,0-.42.42V22a.42.42,0,0,0,.42.42h.36v.6a.32.32,0,0,0,.64,0v-.6h.6v.6a.32.32,0,1,0,.64,0v-.64c.78-.12,1.28-.55,1.28-1.26h0A1.17,1.17,0,0,0,11.78,20Zm-.16-.93h0c0,.44-.35.64-.89.64H9.6V18.46h1.19C11.33,18.46,11.62,18.69,11.62,19.06Zm.27,2c0,.43-.35.65-.91.65H9.6V20.42h1.32c.65,0,1,.23,1,.63Z"/></g></g></svg>