<svg xmlns="http://www.w3.org/2000/svg" viewBox="0 0 36.6 55.23"><defs><style>.cls-1{fill:#fff;}.cls-2{fill:#f1b71c;}</style></defs><title>Recurso 22</title><g id="Capa_2" data-name="Capa 2"><g id="Capa_1-2" data-name="Capa 1"><path class="cls-1" d="M32,47.66a16.24,16.24,0,0,1-6,2.67v4.9H17.22V51.14H12.67v4.09H3.93V43.5H20.22a9.89,9.89,0,0,0,6-1.52,5.26,5.26,0,0,0,2-4.49A5.36,5.36,0,0,0,26.39,33,8.71,8.71,0,0,0,21,31.49h-17V23.64H20q8.24.12,12.43,3.54T36.6,37.36Q36.6,44.18,32,47.66Z"/><rect class="cls-2" y="0.05" width="1.94" height="55.06"/><path class="cls-2" d="M32.39,27.18l.19.16q4-3.45,4-9.8c0-.47,0-.93-.05-1.37H28.09a7.78,7.78,0,0,1,.14,1.49,5.27,5.27,0,0,1-2,4.5,9.3,9.3,0,0,1-5.35,1.5Q28.42,24,32.39,27.18Z"/><path class="cls-1" d="M26.2,13.14a4.73,4.73,0,0,1,1.89,3h8.43A11.68,11.68,0,0,0,32,7.46a16.24,16.24,0,0,0-6-2.67V0H17.22V4H12.67V0H3.93V11.62H20.22A9.89,9.89,0,0,1,26.2,13.14Z"/></g></g></svg>